<svg width="206" height="129" viewBox="0 0 206 129" fill="none" xmlns="http://www.w3.org/2000/svg">
<path d="M102.963 73.9687C117.611 73.9687 129.485 62.0944 129.485 47.4468C129.485 32.7991 117.611 20.9248 102.963 20.9248C88.3152 20.9248 76.4409 32.7991 76.4409 47.4468C76.4409 62.0944 88.3152 73.9687 102.963 73.9687Z" fill="#F17D29"/>
<path d="M92.8777 64.8718L79.9697 71.3359L83.5776 78.5404L96.4855 72.0763L92.8777 64.8718Z" fill="#F17D29"/>
<path d="M85.2794 77.8095C86.0448 76.6486 84.1557 74.0526 81.0598 72.0114C77.9639 69.9701 74.8336 69.2565 74.0681 70.4174C73.3027 71.5784 75.1918 74.1743 78.2877 76.2156C81.3836 78.2568 84.5139 78.9705 85.2794 77.8095Z" fill="#F17D29"/>
<path d="M113.048 64.8722L109.44 72.0767L122.348 78.5408L125.956 71.3363L113.048 64.8722Z" fill="#F17D29"/>
<path d="M127.638 76.2157C130.734 74.1744 132.623 71.5785 131.858 70.4175C131.093 69.2566 127.962 69.9702 124.866 72.0115C121.77 74.0527 119.881 76.6487 120.647 77.8096C121.412 78.9706 124.542 78.257 127.638 76.2157Z" fill="#F17D29"/>
<path d="M101.106 50.024C106.112 50.024 110.17 45.9656 110.17 40.9595C110.17 35.9533 106.112 31.895 101.106 31.895C96.0998 31.895 92.0415 35.9533 92.0415 40.9595C92.0415 45.9656 96.0998 50.024 101.106 50.024Z" fill="white"/>
<path d="M103.311 39.2217C104.486 38.0467 104.48 36.1348 103.296 34.9514C102.113 33.7681 100.201 33.7613 99.026 34.9364C97.851 36.1114 97.8577 38.0233 99.0411 39.2066C100.224 40.39 102.136 40.3968 103.311 39.2217Z" fill="#3F3D56"/>
<path d="M123.885 18.5938C124.284 8.77503 115.822 0.458409 104.984 0.0181919C94.1461 -0.422025 85.037 7.1808 84.6382 16.9996C84.2393 26.8185 91.773 29.0494 102.611 29.4896C113.449 29.9299 123.486 28.4127 123.885 18.5938Z" fill="white"/>
<circle cx="104.387" cy="23.4905" r="4.73467" fill="#FF9300"/>
<ellipse cx="104.36" cy="14.8537" rx="1.552" ry="7.90988" fill="black"/>
<circle cx="104.487" cy="22.5114" r="3.15645" transform="rotate(25.3624 104.487 22.5114)" fill="black"/>
<ellipse cx="109.331" cy="21.7993" rx="1.25959" ry="5.56543" transform="rotate(84.3717 109.331 21.7993)" fill="black"/>
<path d="M139.173 61.3349C140.918 59.8373 138.465 54.1184 133.694 48.5614C128.924 43.0043 123.642 39.7135 121.898 41.2112C120.153 42.7088 122.606 48.4277 127.377 53.9847C132.147 59.5417 137.429 62.8325 139.173 61.3349Z" fill="#F17D29"/>
<path d="M78.6238 53.9845C83.3943 48.4275 85.8474 42.7086 84.1029 41.211C82.3583 39.7134 77.0768 43.0042 72.3063 48.5612C67.5357 54.1182 65.0827 59.8371 66.8272 61.3347C68.5717 62.8324 73.8532 59.5416 78.6238 53.9845Z" fill="#F17D29"/>
<path d="M110.247 57.8989C110.535 59.4757 110.183 61.1019 109.271 62.4198C108.359 63.7377 106.961 64.6394 105.385 64.9264C103.808 65.2135 102.181 64.8624 100.864 63.9504C99.5456 63.0384 98.644 61.6402 98.3569 60.0635L98.3548 60.0518C97.7603 56.7677 100.299 55.6056 103.583 55.0111C106.868 54.4166 109.653 54.6148 110.247 57.8989Z" fill="white"/>
<path d="M1.48 109.272C1.29333 108.978 1.12 108.578 0.96 108.072C0.8 107.565 0.72 107.032 0.72 106.472C0.72 105.432 0.946667 104.685 1.4 104.232C1.88 103.778 2.49333 103.552 3.24 103.552H20.68C20.8667 103.845 21.04 104.245 21.2 104.752C21.36 105.258 21.44 105.792 21.44 106.352C21.44 107.392 21.2 108.138 20.72 108.592C20.2667 109.045 19.6667 109.272 18.92 109.272H14.48V127.752C14.1867 127.832 13.72 127.912 13.08 127.992C12.4667 128.072 11.8533 128.112 11.24 128.112C10.6267 128.112 10.08 128.058 9.6 127.952C9.14667 127.872 8.76 127.712 8.44 127.472C8.12 127.232 7.88 126.898 7.72 126.472C7.56 126.045 7.48 125.485 7.48 124.792V109.272H1.48ZM31.8266 127.752C31.5332 127.832 31.0666 127.912 30.4266 127.992C29.8132 128.072 29.1999 128.112 28.5866 128.112C27.9732 128.112 27.4266 128.058 26.9466 127.952C26.4932 127.872 26.1066 127.712 25.7866 127.472C25.4666 127.232 25.2266 126.898 25.0666 126.472C24.9066 126.045 24.8266 125.485 24.8266 124.792V103.672C25.1199 103.618 25.5866 103.552 26.2266 103.472C26.8666 103.365 27.4799 103.312 28.0666 103.312C28.6799 103.312 29.2132 103.365 29.6666 103.472C30.1466 103.552 30.5466 103.712 30.8666 103.952C31.1866 104.192 31.4266 104.525 31.5866 104.952C31.7466 105.378 31.8266 105.938 31.8266 106.632V127.752ZM53.7741 121.952C53.4274 122.245 52.9741 122.485 52.4141 122.672C51.8807 122.832 51.2541 122.912 50.5341 122.912C49.5741 122.912 48.7741 122.792 48.1341 122.552C47.5207 122.312 47.1207 121.898 46.9341 121.312C46.1874 118.965 45.5741 117.072 45.0941 115.632C44.6141 114.165 44.2407 112.885 43.9741 111.792H43.7741C43.6941 113.365 43.6274 114.805 43.5741 116.112C43.5474 117.392 43.5207 118.645 43.4941 119.872C43.4941 121.098 43.4674 122.338 43.4141 123.592C43.3874 124.845 43.3341 126.232 43.2541 127.752C42.9074 127.885 42.4541 127.992 41.8941 128.072C41.3341 128.178 40.7741 128.232 40.2141 128.232C39.0407 128.232 38.1207 128.045 37.4541 127.672C36.8141 127.298 36.4941 126.618 36.4941 125.632L37.6541 105.232C37.8674 104.885 38.3341 104.512 39.0541 104.112C39.7741 103.712 40.7874 103.512 42.0941 103.512C43.5074 103.512 44.6141 103.738 45.4141 104.192C46.2141 104.618 46.8007 105.325 47.1741 106.312C47.4141 106.952 47.6674 107.685 47.9341 108.512C48.2274 109.338 48.5074 110.192 48.7741 111.072C49.0674 111.952 49.3474 112.832 49.6141 113.712C49.8807 114.565 50.1207 115.338 50.3341 116.032H50.5341C51.1741 113.792 51.8141 111.632 52.4541 109.552C53.0941 107.445 53.6807 105.685 54.2141 104.272C54.6141 104.058 55.1207 103.885 55.7341 103.752C56.3741 103.592 57.0807 103.512 57.8541 103.512C59.1607 103.512 60.2274 103.712 61.0541 104.112C61.8807 104.485 62.3607 105.032 62.4941 105.752C62.6007 106.285 62.7074 107.112 62.8141 108.232C62.9474 109.325 63.0807 110.565 63.2141 111.952C63.3474 113.338 63.4807 114.805 63.6141 116.352C63.7474 117.898 63.8674 119.392 63.9741 120.832C64.1074 122.245 64.2141 123.552 64.2941 124.752C64.3741 125.925 64.4274 126.832 64.4541 127.472C64.0007 127.738 63.5207 127.925 63.0141 128.032C62.5341 128.165 61.9074 128.232 61.1341 128.232C60.1207 128.232 59.2674 128.058 58.5741 127.712C57.8807 127.365 57.5074 126.685 57.4541 125.672C57.2941 122.765 57.1874 120.152 57.1341 117.832C57.1074 115.512 57.0541 113.565 56.9741 111.992H56.7741C56.5074 113.032 56.1207 114.338 55.6141 115.912C55.1074 117.485 54.4941 119.498 53.7741 121.952ZM68.8891 107.392C68.8891 106.245 69.2224 105.338 69.8891 104.672C70.5557 104.005 71.4624 103.672 72.6091 103.672H85.8091C85.9957 103.965 86.1557 104.352 86.2891 104.832C86.4491 105.312 86.5291 105.818 86.5291 106.352C86.5291 107.365 86.3024 108.085 85.8491 108.512C85.4224 108.938 84.8491 109.152 84.1291 109.152H75.6891V112.872H84.6891C84.8757 113.165 85.0357 113.552 85.1691 114.032C85.3291 114.485 85.4091 114.978 85.4091 115.512C85.4091 116.525 85.1957 117.245 84.7691 117.672C84.3424 118.098 83.7691 118.312 83.0491 118.312H75.6891V122.512H85.9691C86.1557 122.805 86.3157 123.192 86.4491 123.672C86.6091 124.152 86.6891 124.658 86.6891 125.192C86.6891 126.205 86.4624 126.938 86.0091 127.392C85.5824 127.818 85.0091 128.032 84.2891 128.032H72.6091C71.4624 128.032 70.5557 127.698 69.8891 127.032C69.2224 126.365 68.8891 125.458 68.8891 124.312V107.392ZM120.771 123.952C120.771 124.778 120.624 125.392 120.331 125.792C120.038 126.192 119.571 126.578 118.931 126.952C118.558 127.165 118.091 127.378 117.531 127.592C116.971 127.778 116.358 127.938 115.691 128.072C115.024 128.232 114.318 128.352 113.571 128.432C112.851 128.512 112.131 128.552 111.411 128.552C109.491 128.552 107.691 128.298 106.011 127.792C104.331 127.258 102.864 126.472 101.611 125.432C100.384 124.365 99.4109 123.045 98.6909 121.472C97.9709 119.898 97.6109 118.072 97.6109 115.992C97.6109 113.805 97.9976 111.898 98.7709 110.272C99.5709 108.645 100.611 107.298 101.891 106.232C103.198 105.138 104.678 104.325 106.331 103.792C108.011 103.258 109.731 102.992 111.491 102.992C114.024 102.992 116.024 103.405 117.491 104.232C118.984 105.032 119.731 106.085 119.731 107.392C119.731 108.085 119.558 108.685 119.211 109.192C118.864 109.698 118.464 110.098 118.011 110.392C117.344 109.992 116.504 109.605 115.491 109.232C114.504 108.832 113.384 108.632 112.131 108.632C109.891 108.632 108.104 109.272 106.771 110.552C105.464 111.832 104.811 113.605 104.811 115.872C104.811 117.098 104.984 118.165 105.331 119.072C105.704 119.952 106.198 120.685 106.811 121.272C107.424 121.832 108.131 122.258 108.931 122.552C109.731 122.818 110.584 122.952 111.491 122.952C112.078 122.952 112.598 122.898 113.051 122.792C113.504 122.685 113.851 122.565 114.091 122.432V118.672H109.811C109.651 118.378 109.491 117.992 109.331 117.512C109.198 117.032 109.131 116.525 109.131 115.992C109.131 115.032 109.344 114.338 109.771 113.912C110.224 113.485 110.798 113.272 111.491 113.272H118.251C119.051 113.272 119.664 113.498 120.091 113.952C120.544 114.378 120.771 114.992 120.771 115.792V123.952ZM125.373 107.392C125.373 106.245 125.707 105.338 126.373 104.672C127.04 104.005 127.947 103.672 129.093 103.672H142.293C142.48 103.965 142.64 104.352 142.773 104.832C142.933 105.312 143.013 105.818 143.013 106.352C143.013 107.365 142.787 108.085 142.333 108.512C141.907 108.938 141.333 109.152 140.613 109.152H132.173V112.872H141.173C141.36 113.165 141.52 113.552 141.653 114.032C141.813 114.485 141.893 114.978 141.893 115.512C141.893 116.525 141.68 117.245 141.253 117.672C140.827 118.098 140.253 118.312 139.533 118.312H132.173V122.512H142.453C142.64 122.805 142.8 123.192 142.933 123.672C143.093 124.152 143.173 124.658 143.173 125.192C143.173 126.205 142.947 126.938 142.493 127.392C142.067 127.818 141.493 128.032 140.773 128.032H129.093C127.947 128.032 127.04 127.698 126.373 127.032C125.707 126.365 125.373 125.458 125.373 124.312V107.392ZM169.248 127.072C168.874 127.445 168.328 127.725 167.608 127.912C166.914 128.125 166.074 128.232 165.088 128.232C164.101 128.232 163.168 128.085 162.288 127.792C161.408 127.498 160.688 126.792 160.128 125.672L156.168 117.592C155.768 116.765 155.408 115.992 155.088 115.272C154.768 114.525 154.421 113.672 154.048 112.712L153.808 112.752C153.914 114.192 153.968 115.658 153.968 117.152C153.994 118.645 154.008 120.112 154.008 121.552V127.752C153.714 127.832 153.261 127.912 152.648 127.992C152.061 128.072 151.474 128.112 150.888 128.112C150.301 128.112 149.781 128.072 149.328 127.992C148.874 127.912 148.501 127.752 148.208 127.512C147.914 127.272 147.688 126.952 147.528 126.552C147.368 126.125 147.288 125.578 147.288 124.912V104.912C147.661 104.378 148.234 103.978 149.008 103.712C149.781 103.445 150.608 103.312 151.488 103.312C152.474 103.312 153.408 103.472 154.288 103.792C155.194 104.085 155.914 104.778 156.447 105.872L160.448 113.952C160.848 114.778 161.208 115.565 161.528 116.312C161.848 117.032 162.194 117.872 162.568 118.832L162.768 118.792C162.661 117.352 162.594 115.912 162.568 114.472C162.541 113.032 162.528 111.592 162.528 110.152V103.672C162.821 103.592 163.261 103.512 163.848 103.432C164.461 103.352 165.061 103.312 165.648 103.312C166.821 103.312 167.714 103.525 168.328 103.952C168.941 104.352 169.248 105.205 169.248 106.512V127.072ZM181.436 127.752C181.143 127.832 180.676 127.912 180.036 127.992C179.423 128.072 178.809 128.112 178.196 128.112C177.583 128.112 177.036 128.058 176.556 127.952C176.103 127.872 175.716 127.712 175.396 127.472C175.076 127.232 174.836 126.898 174.676 126.472C174.516 126.045 174.436 125.485 174.436 124.792V103.672C174.729 103.618 175.196 103.552 175.836 103.472C176.476 103.365 177.089 103.312 177.676 103.312C178.289 103.312 178.823 103.365 179.276 103.472C179.756 103.552 180.156 103.712 180.476 103.952C180.796 104.192 181.036 104.525 181.196 104.952C181.356 105.378 181.436 105.938 181.436 106.632V127.752ZM186.623 107.392C186.623 106.245 186.957 105.338 187.623 104.672C188.29 104.005 189.197 103.672 190.343 103.672H203.543C203.73 103.965 203.89 104.352 204.023 104.832C204.183 105.312 204.263 105.818 204.263 106.352C204.263 107.365 204.037 108.085 203.583 108.512C203.157 108.938 202.583 109.152 201.863 109.152H193.423V112.872H202.423C202.61 113.165 202.77 113.552 202.903 114.032C203.063 114.485 203.143 114.978 203.143 115.512C203.143 116.525 202.93 117.245 202.503 117.672C202.077 118.098 201.503 118.312 200.783 118.312H193.423V122.512H203.703C203.89 122.805 204.05 123.192 204.183 123.672C204.343 124.152 204.423 124.658 204.423 125.192C204.423 126.205 204.197 126.938 203.743 127.392C203.317 127.818 202.743 128.032 202.023 128.032H190.343C189.197 128.032 188.29 127.698 187.623 127.032C186.957 126.365 186.623 125.458 186.623 124.312V107.392Z" fill="#EE6504"/>
</svg>
