<svg width="80" height="80" viewBox="0 0 80 80" fill="none" xmlns="http://www.w3.org/2000/svg">
<circle cx="40" cy="40" r="40" fill="#D9D9D9"/>
<path d="M40.4315 65.3805C51.4027 65.3805 60.2966 56.4902 60.2966 45.5235C60.2966 34.5568 51.4027 25.6665 40.4315 25.6665C29.4603 25.6665 20.5664 34.5568 20.5664 45.5235C20.5664 56.4902 29.4603 65.3805 40.4315 65.3805Z" fill="#2F2E41"/>
<path d="M32.8781 58.5695L23.21 63.4092L25.9123 68.8031L35.5804 63.9635L32.8781 58.5695Z" fill="#2F2E41"/>
<path d="M27.1864 68.256C27.7597 67.3868 26.3447 65.4432 24.0259 63.9149C21.707 62.3866 19.3625 61.8523 18.7891 62.7216C18.2158 63.5908 19.6308 65.5343 21.9496 67.0626C24.2685 68.5909 26.613 69.1252 27.1864 68.256Z" fill="#2F2E41"/>
<path d="M47.9855 58.5699L45.2832 63.9639L54.9513 68.8035L57.6537 63.4096L47.9855 58.5699Z" fill="#2F2E41"/>
<path d="M58.9136 67.0626C61.2324 65.5343 62.6475 63.5907 62.0741 62.7215C61.5008 61.8523 59.1562 62.3866 56.8373 63.9149C54.5185 65.4432 53.1035 67.3868 53.6768 68.256C54.2502 69.1252 56.5947 68.5909 58.9136 67.0626Z" fill="#2F2E41"/>
<path d="M39.0413 47.453C42.7909 47.453 45.8306 44.4146 45.8306 40.6665C45.8306 36.9183 42.7909 33.8799 39.0413 33.8799C35.2916 33.8799 32.252 36.9183 32.252 40.6665C32.252 44.4146 35.2916 47.453 39.0413 47.453Z" fill="white"/>
<path d="M40.693 39.3655C41.5731 38.4858 41.568 37.0543 40.6817 36.1683C39.7953 35.2824 38.3633 35.2773 37.4832 36.1571C36.6031 37.0368 36.6082 38.4682 37.4945 39.3542C38.3809 40.2402 39.8129 40.2453 40.693 39.3655Z" fill="#3F3D56"/>
<path d="M56.1029 23.9212C56.4016 16.5699 50.0633 10.3432 41.9457 10.0136C33.8281 9.68403 27.0054 15.3763 26.7066 22.7276C26.4079 30.079 32.0506 31.7493 40.1682 32.0789C48.2858 32.4085 55.8041 31.2726 56.1029 23.9212Z" fill="#FF9300"/>
<path d="M67.5536 55.9212C68.8602 54.7999 67.0228 50.5182 63.4497 46.3576C59.8765 42.1971 55.9206 39.7333 54.614 40.8545C53.3073 41.9758 55.1447 46.2576 58.7178 50.4181C62.291 54.5786 66.2469 57.0425 67.5536 55.9212Z" fill="#2F2E41"/>
<path d="M22.2016 50.4183C25.7748 46.2577 27.6122 41.976 26.3055 40.8547C24.9988 39.7334 21.043 42.1972 17.4698 46.3578C13.8966 50.5183 12.0593 54.8001 13.3659 55.9214C14.6726 57.0426 18.6285 54.5788 22.2016 50.4183Z" fill="#2F2E41"/>
<path d="M45.8877 53.3488C46.1027 54.5293 45.8397 55.7469 45.1566 56.7336C44.4735 57.7203 43.4263 58.3954 42.2453 58.6103C41.0643 58.8252 39.8462 58.5624 38.8591 57.8796C37.872 57.1968 37.1966 56.1499 36.9816 54.9694L36.98 54.9607C36.5347 52.5019 38.4365 51.6318 40.8963 51.1867C43.3561 50.7416 45.4424 50.89 45.8877 53.3488Z" fill="white"/>
</svg>
