<svg width="85" height="101" viewBox="0 0 85 101" fill="none" xmlns="http://www.w3.org/2000/svg">
<circle cx="42.5" cy="42.5" r="37.5" fill="white"/>
<path d="M37.1401 100H32.3706V91.4336H37.1401V92.3125H33.3667V95.084H36.9233V95.9512H33.3667V99.1211H37.1401V100ZM41.1772 100.117C40.3647 100.117 39.7202 99.8398 39.2437 99.2852C38.771 98.7305 38.5347 97.9062 38.5347 96.8125C38.5347 95.707 38.7769 94.873 39.2612 94.3105C39.7456 93.7441 40.3901 93.4609 41.1948 93.4609C41.5347 93.4609 41.8315 93.5059 42.0854 93.5957C42.3394 93.6855 42.5581 93.8066 42.7417 93.959C42.9253 94.1074 43.0796 94.2773 43.2046 94.4688H43.2749C43.2593 94.3477 43.2437 94.1816 43.228 93.9707C43.2124 93.7598 43.2046 93.5879 43.2046 93.4551V90.8828H44.1772V100H43.3921L43.2456 99.0859H43.2046C43.0835 99.2773 42.9292 99.4512 42.7417 99.6074C42.5581 99.7637 42.3374 99.8887 42.0796 99.9824C41.8257 100.072 41.5249 100.117 41.1772 100.117ZM41.3296 99.3086C42.0171 99.3086 42.5034 99.1133 42.7886 98.7227C43.0737 98.332 43.2163 97.752 43.2163 96.9824V96.8066C43.2163 95.9902 43.0796 95.3633 42.8062 94.9258C42.5366 94.4883 42.0444 94.2695 41.3296 94.2695C40.7319 94.2695 40.2847 94.5 39.9878 94.9609C39.6909 95.418 39.5425 96.043 39.5425 96.8359C39.5425 97.625 39.689 98.2344 39.9819 98.6641C40.2788 99.0938 40.728 99.3086 41.3296 99.3086ZM47.2124 93.5781V100H46.2397V93.5781H47.2124ZM46.7378 91.1758C46.8979 91.1758 47.0347 91.2285 47.1479 91.334C47.2651 91.4355 47.3237 91.5957 47.3237 91.8145C47.3237 92.0293 47.2651 92.1895 47.1479 92.2949C47.0347 92.4004 46.8979 92.4531 46.7378 92.4531C46.5698 92.4531 46.4292 92.4004 46.3159 92.2949C46.2065 92.1895 46.1519 92.0293 46.1519 91.8145C46.1519 91.5957 46.2065 91.4355 46.3159 91.334C46.4292 91.2285 46.5698 91.1758 46.7378 91.1758ZM51.3491 99.3203C51.5093 99.3203 51.6733 99.3066 51.8413 99.2793C52.0093 99.252 52.146 99.2188 52.2515 99.1797V99.9355C52.1382 99.9863 51.98 100.029 51.7769 100.064C51.5776 100.1 51.3823 100.117 51.1909 100.117C50.8511 100.117 50.5425 100.059 50.2651 99.9414C49.9878 99.8203 49.7651 99.6172 49.5972 99.332C49.4331 99.0469 49.3511 98.6523 49.3511 98.1484V94.3398H48.437V93.8652L49.3569 93.4844L49.7437 92.0898H50.3296V93.5781H52.2104V94.3398H50.3296V98.1191C50.3296 98.5215 50.4214 98.8223 50.605 99.0215C50.7925 99.2207 51.0405 99.3203 51.3491 99.3203Z" fill="black"/>
<path fill-rule="evenodd" clip-rule="evenodd" d="M42.5001 0C65.8251 0 84.8015 18.9764 84.8015 42.3014C84.8015 65.6263 65.8251 84.6027 42.5001 84.6027C19.1751 84.6027 0.19873 65.6263 0.19873 42.3014C0.19873 18.9764 19.1751 0 42.5001 0ZM68.8961 63.452C65.7298 67.4114 61.7132 70.6078 57.144 72.8043C52.5747 75.0009 47.5699 76.1414 42.5001 76.1414C37.4303 76.1414 32.4255 75.0009 27.8562 72.8043C23.287 70.6078 19.2704 67.4114 16.104 63.452C19.2704 59.4927 23.287 56.2963 27.8562 54.0997C32.4255 51.9032 37.4303 50.7627 42.5001 50.7627C47.5699 50.7627 52.5747 51.9032 57.144 54.0997C61.7132 56.2963 65.7298 59.4927 68.8961 63.452ZM42.5001 42.3014C44.1666 42.3014 45.8168 41.9731 47.3565 41.3354C48.8962 40.6976 50.2952 39.7628 51.4736 38.5844C52.652 37.406 53.5868 36.007 54.2245 34.4674C54.8623 32.9277 55.1905 31.2775 55.1905 29.611C55.1905 27.9444 54.8623 26.2942 54.2245 24.7545C53.5868 23.2149 52.652 21.8159 51.4736 20.6375C50.2952 19.4591 48.8962 18.5243 47.3565 17.8865C45.8168 17.2488 44.1666 16.9205 42.5001 16.9205C39.1344 16.9205 35.9065 18.2576 33.5266 20.6375C31.1467 23.0174 29.8097 26.2452 29.8097 29.611C29.8097 32.9767 31.1467 36.2045 33.5266 38.5844C35.9065 40.9643 39.1344 42.3014 42.5001 42.3014Z" fill="#5C5F62"/>
</svg>
