<svg width="296" height="253" viewBox="0 0 296 253" fill="none" xmlns="http://www.w3.org/2000/svg">
<rect width="296" height="253" rx="10" fill="white"/>
<path d="M148.5 48.4167C141.165 48.4167 133.996 50.5916 127.897 54.6664C121.799 58.7412 117.046 64.5328 114.239 71.3089C111.433 78.085 110.698 85.5412 112.129 92.7347C113.56 99.9281 117.092 106.536 122.278 111.722C127.464 116.908 134.072 120.44 141.265 121.871C148.459 123.302 155.915 122.567 162.691 119.761C169.467 116.954 175.259 112.201 179.334 106.102C183.408 100.004 185.583 92.8345 185.583 85.5001C185.583 80.6302 184.624 75.8081 182.76 71.3089C180.897 66.8097 178.165 62.7217 174.722 59.2782C171.278 55.8347 167.19 53.1032 162.691 51.2395C158.192 49.3759 153.37 48.4167 148.5 48.4167ZM148.5 115.167C142.632 115.167 136.897 113.427 132.018 110.167C127.139 106.907 123.337 102.274 121.091 96.853C118.846 91.4321 118.259 85.4672 119.403 79.7124C120.548 73.9576 123.373 68.6715 127.522 64.5226C131.671 60.3736 136.957 57.5481 142.712 56.4035C148.467 55.2588 154.432 55.8463 159.853 58.0917C165.274 60.3371 169.907 64.1395 173.167 69.0182C176.427 73.8968 178.167 79.6326 178.167 85.5001C178.167 93.3682 175.041 100.914 169.477 106.478C163.914 112.041 156.368 115.167 148.5 115.167Z" fill="#4CAF50"/>
<path d="M158.513 72.1129L144.495 90.6546L138.451 82.83C137.846 82.053 136.957 81.5482 135.98 81.4265C135.003 81.3048 134.018 81.5762 133.241 82.181C132.464 82.7859 131.959 83.6746 131.837 84.6517C131.715 85.6289 131.987 86.6143 132.592 87.3913L141.603 98.9242C141.952 99.3661 142.397 99.7227 142.905 99.9669C143.413 100.211 143.969 100.336 144.533 100.333C145.099 100.332 145.657 100.201 146.165 99.9502C146.673 99.6995 147.117 99.3358 147.462 98.8871L164.409 76.6371C165.009 75.8503 165.272 74.8574 165.14 73.8768C165.008 72.8962 164.491 72.0083 163.705 71.4083C162.918 70.8084 161.925 70.5456 160.944 70.6777C159.964 70.8099 159.076 71.3261 158.476 72.1129H158.513Z" fill="#4CAF50"/>
<path d="M79.2784 154.438H76.7898C76.7443 154.116 76.6515 153.83 76.5114 153.58C76.3712 153.326 76.1913 153.11 75.9716 152.932C75.7519 152.754 75.4981 152.617 75.2102 152.523C74.9261 152.428 74.6174 152.381 74.2841 152.381C73.6818 152.381 73.1572 152.53 72.7102 152.83C72.2633 153.125 71.9167 153.557 71.6705 154.125C71.4242 154.689 71.3011 155.375 71.3011 156.182C71.3011 157.011 71.4242 157.708 71.6705 158.273C71.9205 158.837 72.2689 159.263 72.7159 159.551C73.1629 159.839 73.6799 159.983 74.267 159.983C74.5966 159.983 74.9015 159.939 75.1818 159.852C75.4659 159.765 75.7178 159.638 75.9375 159.472C76.1572 159.301 76.339 159.095 76.483 158.852C76.6307 158.61 76.733 158.333 76.7898 158.023L79.2784 158.034C79.214 158.568 79.053 159.083 78.7955 159.58C78.5417 160.072 78.1989 160.513 77.767 160.903C77.339 161.29 76.8277 161.597 76.233 161.824C75.642 162.047 74.9735 162.159 74.2273 162.159C73.1894 162.159 72.2614 161.924 71.4432 161.455C70.6288 160.985 69.9848 160.305 69.5114 159.415C69.0417 158.525 68.8068 157.447 68.8068 156.182C68.8068 154.913 69.0455 153.833 69.5227 152.943C70 152.053 70.6477 151.375 71.4659 150.909C72.2841 150.439 73.2045 150.205 74.2273 150.205C74.9015 150.205 75.5265 150.299 76.1023 150.489C76.6818 150.678 77.1951 150.955 77.642 151.318C78.089 151.678 78.4527 152.119 78.733 152.642C79.017 153.165 79.1989 153.763 79.2784 154.438ZM91.7358 156.182C91.7358 157.451 91.4953 158.53 91.0142 159.42C90.5369 160.311 89.8854 160.991 89.0597 161.46C88.2377 161.926 87.3134 162.159 86.2869 162.159C85.2528 162.159 84.3248 161.924 83.5028 161.455C82.6809 160.985 82.0313 160.305 81.554 159.415C81.0767 158.525 80.8381 157.447 80.8381 156.182C80.8381 154.913 81.0767 153.833 81.554 152.943C82.0313 152.053 82.6809 151.375 83.5028 150.909C84.3248 150.439 85.2528 150.205 86.2869 150.205C87.3134 150.205 88.2377 150.439 89.0597 150.909C89.8854 151.375 90.5369 152.053 91.0142 152.943C91.4953 153.833 91.7358 154.913 91.7358 156.182ZM89.2415 156.182C89.2415 155.36 89.1184 154.667 88.8722 154.102C88.6297 153.538 88.2869 153.11 87.8438 152.818C87.4006 152.527 86.8816 152.381 86.2869 152.381C85.6922 152.381 85.1733 152.527 84.7301 152.818C84.2869 153.11 83.9422 153.538 83.696 154.102C83.4536 154.667 83.3324 155.36 83.3324 156.182C83.3324 157.004 83.4536 157.697 83.696 158.261C83.9422 158.826 84.2869 159.254 84.7301 159.545C85.1733 159.837 85.6922 159.983 86.2869 159.983C86.8816 159.983 87.4006 159.837 87.8438 159.545C88.2869 159.254 88.6297 158.826 88.8722 158.261C89.1184 157.697 89.2415 157.004 89.2415 156.182ZM103.291 150.364V162H101.166L96.1037 154.676H96.0185V162H93.5582V150.364H95.7173L100.74 157.682H100.842V150.364H103.291ZM113.04 154.125C112.96 153.848 112.848 153.604 112.705 153.392C112.561 153.176 112.384 152.994 112.176 152.847C111.972 152.695 111.737 152.58 111.472 152.5C111.21 152.42 110.92 152.381 110.602 152.381C110.008 152.381 109.485 152.528 109.034 152.824C108.587 153.119 108.239 153.549 107.989 154.114C107.739 154.674 107.614 155.36 107.614 156.17C107.614 156.981 107.737 157.67 107.983 158.239C108.229 158.807 108.578 159.241 109.028 159.54C109.479 159.835 110.011 159.983 110.625 159.983C111.182 159.983 111.657 159.884 112.051 159.688C112.449 159.487 112.752 159.205 112.96 158.841C113.172 158.477 113.278 158.047 113.278 157.551L113.778 157.625H110.778V155.773H115.648V157.239C115.648 158.261 115.432 159.14 115 159.875C114.568 160.606 113.973 161.17 113.216 161.568C112.458 161.962 111.591 162.159 110.614 162.159C109.523 162.159 108.564 161.919 107.739 161.438C106.913 160.953 106.269 160.265 105.807 159.375C105.348 158.481 105.119 157.42 105.119 156.193C105.119 155.25 105.256 154.409 105.528 153.67C105.805 152.928 106.191 152.299 106.688 151.784C107.184 151.269 107.761 150.877 108.42 150.608C109.08 150.339 109.794 150.205 110.562 150.205C111.222 150.205 111.835 150.301 112.403 150.494C112.972 150.684 113.475 150.953 113.915 151.301C114.358 151.65 114.72 152.064 115 152.545C115.28 153.023 115.46 153.549 115.54 154.125H113.04ZM117.496 162V150.364H122.087C122.965 150.364 123.715 150.521 124.337 150.835C124.962 151.146 125.437 151.587 125.763 152.159C126.092 152.727 126.257 153.396 126.257 154.165C126.257 154.937 126.09 155.602 125.757 156.159C125.424 156.712 124.941 157.136 124.308 157.432C123.679 157.727 122.918 157.875 122.024 157.875H118.95V155.898H121.626C122.096 155.898 122.486 155.833 122.797 155.705C123.107 155.576 123.339 155.383 123.49 155.125C123.645 154.867 123.723 154.547 123.723 154.165C123.723 153.778 123.645 153.453 123.49 153.188C123.339 152.922 123.106 152.722 122.791 152.585C122.481 152.445 122.089 152.375 121.615 152.375H119.956V162H117.496ZM123.78 156.705L126.672 162H123.956L121.126 156.705H123.78ZM130.001 162H127.365L131.382 150.364H134.553L138.564 162H135.928L133.013 153.023H132.922L130.001 162ZM129.837 157.426H136.064V159.347H129.837V157.426ZM138.099 152.392V150.364H147.656V152.392H144.094V162H141.662V152.392H138.099ZM156.418 150.364H158.878V157.92C158.878 158.769 158.675 159.511 158.27 160.148C157.868 160.784 157.306 161.28 156.582 161.636C155.859 161.989 155.016 162.165 154.054 162.165C153.088 162.165 152.243 161.989 151.52 161.636C150.796 161.28 150.234 160.784 149.832 160.148C149.431 159.511 149.23 158.769 149.23 157.92V150.364H151.69V157.71C151.69 158.153 151.787 158.547 151.98 158.892C152.177 159.237 152.454 159.508 152.81 159.705C153.166 159.902 153.58 160 154.054 160C154.531 160 154.946 159.902 155.298 159.705C155.654 159.508 155.929 159.237 156.122 158.892C156.319 158.547 156.418 158.153 156.418 157.71V150.364ZM160.902 162V150.364H163.362V159.972H168.351V162H160.902ZM172.283 162H169.646L173.663 150.364H176.834L180.845 162H178.209L175.294 153.023H175.203L172.283 162ZM172.118 157.426H178.345V159.347H172.118V157.426ZM180.381 152.392V150.364H189.938V152.392H186.375V162H183.943V152.392H180.381ZM193.972 150.364V162H191.511V150.364H193.972ZM206.689 156.182C206.689 157.451 206.448 158.53 205.967 159.42C205.49 160.311 204.839 160.991 204.013 161.46C203.191 161.926 202.267 162.159 201.24 162.159C200.206 162.159 199.278 161.924 198.456 161.455C197.634 160.985 196.984 160.305 196.507 159.415C196.03 158.525 195.791 157.447 195.791 156.182C195.791 154.913 196.03 153.833 196.507 152.943C196.984 152.053 197.634 151.375 198.456 150.909C199.278 150.439 200.206 150.205 201.24 150.205C202.267 150.205 203.191 150.439 204.013 150.909C204.839 151.375 205.49 152.053 205.967 152.943C206.448 153.833 206.689 154.913 206.689 156.182ZM204.195 156.182C204.195 155.36 204.071 154.667 203.825 154.102C203.583 153.538 203.24 153.11 202.797 152.818C202.354 152.527 201.835 152.381 201.24 152.381C200.645 152.381 200.126 152.527 199.683 152.818C199.24 153.11 198.895 153.538 198.649 154.102C198.407 154.667 198.286 155.36 198.286 156.182C198.286 157.004 198.407 157.697 198.649 158.261C198.895 158.826 199.24 159.254 199.683 159.545C200.126 159.837 200.645 159.983 201.24 159.983C201.835 159.983 202.354 159.837 202.797 159.545C203.24 159.254 203.583 158.826 203.825 158.261C204.071 157.697 204.195 157.004 204.195 156.182ZM218.244 150.364V162H216.119L211.057 154.676H210.972V162H208.511V150.364H210.67L215.693 157.682H215.795V150.364H218.244ZM223.124 150.364L222.902 158.511H220.822L220.595 150.364H223.124ZM221.862 162.148C221.487 162.148 221.165 162.015 220.896 161.75C220.627 161.481 220.495 161.159 220.499 160.784C220.495 160.413 220.627 160.095 220.896 159.83C221.165 159.564 221.487 159.432 221.862 159.432C222.222 159.432 222.538 159.564 222.811 159.83C223.084 160.095 223.222 160.413 223.226 160.784C223.222 161.034 223.156 161.263 223.027 161.472C222.902 161.676 222.737 161.841 222.533 161.966C222.328 162.087 222.105 162.148 221.862 162.148Z" fill="#4CAF50"/>
<path d="M70.9186 177.818H73.0017L75.4925 182.322H75.5919L78.0827 177.818H80.1657L76.4619 184.202V188H74.6224V184.202L70.9186 177.818ZM83.3016 188.149C82.5558 188.149 81.9095 187.985 81.3627 187.657C80.8158 187.329 80.3915 186.87 80.0899 186.28C79.7916 185.69 79.6425 185 79.6425 184.212C79.6425 183.423 79.7916 182.732 80.0899 182.138C80.3915 181.545 80.8158 181.085 81.3627 180.756C81.9095 180.428 82.5558 180.264 83.3016 180.264C84.0473 180.264 84.6936 180.428 85.2405 180.756C85.7874 181.085 86.21 181.545 86.5083 182.138C86.8099 182.732 86.9607 183.423 86.9607 184.212C86.9607 185 86.8099 185.69 86.5083 186.28C86.21 186.87 85.7874 187.329 85.2405 187.657C84.6936 187.985 84.0473 188.149 83.3016 188.149ZM83.3115 186.707C83.7159 186.707 84.0539 186.596 84.3257 186.374C84.5975 186.149 84.7997 185.847 84.9323 185.469C85.0682 185.092 85.1361 184.671 85.1361 184.207C85.1361 183.739 85.0682 183.317 84.9323 182.939C84.7997 182.558 84.5975 182.254 84.3257 182.029C84.0539 181.804 83.7159 181.691 83.3115 181.691C82.8972 181.691 82.5525 181.804 82.2774 182.029C82.0057 182.254 81.8018 182.558 81.6659 182.939C81.5334 183.317 81.4671 183.739 81.4671 184.207C81.4671 184.671 81.5334 185.092 81.6659 185.469C81.8018 185.847 82.0057 186.149 82.2774 186.374C82.5525 186.596 82.8972 186.707 83.3115 186.707ZM93.3554 184.788V180.364H95.1551V188H93.4101V186.643H93.3305C93.1582 187.07 92.8748 187.42 92.4804 187.692C92.0893 187.964 91.607 188.099 91.0336 188.099C90.5332 188.099 90.0907 187.988 89.7062 187.766C89.3251 187.541 89.0268 187.214 88.8113 186.787C88.5959 186.356 88.4882 185.836 88.4882 185.226V180.364H90.2879V184.947C90.2879 185.431 90.4205 185.816 90.6856 186.101C90.9508 186.386 91.2988 186.528 91.7297 186.528C91.9948 186.528 92.2517 186.464 92.5003 186.335C92.7488 186.205 92.9527 186.013 93.1118 185.758C93.2742 185.499 93.3554 185.176 93.3554 184.788ZM97.0058 188V180.364H98.7508V181.636H98.8303C98.9695 181.196 99.2082 180.856 99.5463 180.617C99.8876 180.375 100.277 180.254 100.715 180.254C100.814 180.254 100.925 180.259 101.048 180.269C101.174 180.276 101.278 180.287 101.361 180.304V181.96C101.285 181.933 101.164 181.91 100.998 181.89C100.836 181.867 100.678 181.855 100.526 181.855C100.198 181.855 99.9026 181.926 99.6407 182.069C99.3822 182.208 99.1784 182.402 99.0292 182.651C98.8801 182.899 98.8055 183.186 98.8055 183.511V188H97.0058ZM108.227 188.154C107.743 188.154 107.307 188.068 106.919 187.896C106.535 187.72 106.23 187.461 106.004 187.12C105.782 186.779 105.671 186.358 105.671 185.857C105.671 185.426 105.751 185.07 105.91 184.788C106.069 184.507 106.286 184.281 106.561 184.112C106.836 183.943 107.146 183.816 107.491 183.729C107.839 183.64 108.198 183.575 108.57 183.536C109.017 183.489 109.38 183.448 109.658 183.411C109.937 183.371 110.139 183.312 110.265 183.232C110.394 183.149 110.459 183.022 110.459 182.849V182.82C110.459 182.445 110.348 182.155 110.126 181.95C109.904 181.744 109.584 181.641 109.166 181.641C108.725 181.641 108.376 181.737 108.117 181.93C107.862 182.122 107.69 182.349 107.6 182.611L105.92 182.372C106.052 181.908 106.271 181.52 106.576 181.209C106.881 180.894 107.254 180.659 107.695 180.503C108.136 180.344 108.623 180.264 109.156 180.264C109.524 180.264 109.89 180.307 110.255 180.393C110.62 180.48 110.953 180.622 111.254 180.821C111.556 181.017 111.798 181.283 111.98 181.621C112.166 181.96 112.259 182.382 112.259 182.889V188H110.528V186.951H110.469C110.359 187.163 110.205 187.362 110.006 187.548C109.811 187.73 109.564 187.877 109.266 187.99C108.971 188.099 108.624 188.154 108.227 188.154ZM108.694 186.832C109.055 186.832 109.368 186.76 109.634 186.618C109.899 186.472 110.103 186.28 110.245 186.041C110.391 185.803 110.464 185.542 110.464 185.261V184.361C110.408 184.407 110.311 184.45 110.176 184.49C110.043 184.53 109.894 184.565 109.728 184.594C109.562 184.624 109.398 184.651 109.236 184.674C109.073 184.697 108.933 184.717 108.813 184.734C108.545 184.77 108.305 184.83 108.092 184.913C107.88 184.996 107.713 185.112 107.59 185.261C107.468 185.406 107.406 185.595 107.406 185.827C107.406 186.159 107.527 186.409 107.769 186.578C108.011 186.747 108.319 186.832 108.694 186.832ZM117.399 188.149C116.637 188.149 115.982 187.982 115.435 187.647C114.892 187.312 114.473 186.85 114.178 186.26C113.886 185.667 113.74 184.984 113.74 184.212C113.74 183.436 113.889 182.752 114.188 182.158C114.486 181.562 114.907 181.098 115.45 180.766C115.997 180.432 116.644 180.264 117.389 180.264C118.009 180.264 118.558 180.379 119.035 180.607C119.515 180.833 119.898 181.152 120.183 181.567C120.468 181.978 120.631 182.458 120.671 183.009H118.95C118.881 182.641 118.715 182.334 118.453 182.089C118.195 181.84 117.848 181.716 117.414 181.716C117.046 181.716 116.723 181.815 116.445 182.014C116.166 182.21 115.949 182.491 115.793 182.859C115.641 183.227 115.565 183.668 115.565 184.182C115.565 184.702 115.641 185.15 115.793 185.524C115.946 185.895 116.16 186.182 116.435 186.384C116.713 186.583 117.04 186.683 117.414 186.683C117.679 186.683 117.916 186.633 118.125 186.533C118.337 186.431 118.515 186.283 118.657 186.091C118.8 185.899 118.897 185.665 118.95 185.39H120.671C120.627 185.93 120.468 186.409 120.193 186.827C119.918 187.241 119.544 187.566 119.07 187.801C118.596 188.033 118.039 188.149 117.399 188.149ZM125.479 188.149C124.717 188.149 124.062 187.982 123.516 187.647C122.972 187.312 122.553 186.85 122.258 186.26C121.966 185.667 121.82 184.984 121.82 184.212C121.82 183.436 121.969 182.752 122.268 182.158C122.566 181.562 122.987 181.098 123.53 180.766C124.077 180.432 124.724 180.264 125.469 180.264C126.089 180.264 126.638 180.379 127.115 180.607C127.596 180.833 127.978 181.152 128.263 181.567C128.548 181.978 128.711 182.458 128.751 183.009H127.03C126.961 182.641 126.795 182.334 126.533 182.089C126.275 181.84 125.928 181.716 125.494 181.716C125.126 181.716 124.803 181.815 124.525 182.014C124.246 182.21 124.029 182.491 123.873 182.859C123.721 183.227 123.645 183.668 123.645 184.182C123.645 184.702 123.721 185.15 123.873 185.524C124.026 185.895 124.24 186.182 124.515 186.384C124.793 186.583 125.12 186.683 125.494 186.683C125.759 186.683 125.996 186.633 126.205 186.533C126.417 186.431 126.595 186.283 126.737 186.091C126.88 185.899 126.977 185.665 127.03 185.39H128.751C128.708 185.93 128.548 186.409 128.273 186.827C127.998 187.241 127.624 187.566 127.15 187.801C126.676 188.033 126.119 188.149 125.479 188.149ZM133.559 188.149C132.814 188.149 132.167 187.985 131.62 187.657C131.074 187.329 130.649 186.87 130.348 186.28C130.049 185.69 129.9 185 129.9 184.212C129.9 183.423 130.049 182.732 130.348 182.138C130.649 181.545 131.074 181.085 131.62 180.756C132.167 180.428 132.814 180.264 133.559 180.264C134.305 180.264 134.951 180.428 135.498 180.756C136.045 181.085 136.468 181.545 136.766 182.138C137.068 182.732 137.218 183.423 137.218 184.212C137.218 185 137.068 185.69 136.766 186.28C136.468 186.87 136.045 187.329 135.498 187.657C134.951 187.985 134.305 188.149 133.559 188.149ZM133.569 186.707C133.974 186.707 134.312 186.596 134.584 186.374C134.855 186.149 135.057 185.847 135.19 185.469C135.326 185.092 135.394 184.671 135.394 184.207C135.394 183.739 135.326 183.317 135.19 182.939C135.057 182.558 134.855 182.254 134.584 182.029C134.312 181.804 133.974 181.691 133.569 181.691C133.155 181.691 132.81 181.804 132.535 182.029C132.263 182.254 132.06 182.558 131.924 182.939C131.791 183.317 131.725 183.739 131.725 184.207C131.725 184.671 131.791 185.092 131.924 185.469C132.06 185.847 132.263 186.149 132.535 186.374C132.81 186.596 133.155 186.707 133.569 186.707ZM143.613 184.788V180.364H145.413V188H143.668V186.643H143.588C143.416 187.07 143.133 187.42 142.738 187.692C142.347 187.964 141.865 188.099 141.291 188.099C140.791 188.099 140.349 187.988 139.964 187.766C139.583 187.541 139.285 187.214 139.069 186.787C138.854 186.356 138.746 185.836 138.746 185.226V180.364H140.546V184.947C140.546 185.431 140.678 185.816 140.943 186.101C141.209 186.386 141.557 186.528 141.987 186.528C142.253 186.528 142.509 186.464 142.758 186.335C143.007 186.205 143.21 186.013 143.37 185.758C143.532 185.499 143.613 185.176 143.613 184.788ZM149.063 183.526V188H147.264V180.364H148.984V181.661H149.073C149.249 181.234 149.529 180.894 149.913 180.642C150.301 180.39 150.78 180.264 151.35 180.264C151.877 180.264 152.336 180.377 152.727 180.602C153.122 180.828 153.427 181.154 153.642 181.582C153.861 182.009 153.969 182.528 153.965 183.138V188H152.166V183.416C152.166 182.906 152.033 182.506 151.768 182.218C151.506 181.93 151.143 181.786 150.679 181.786C150.364 181.786 150.084 181.855 149.839 181.994C149.597 182.13 149.406 182.327 149.267 182.586C149.131 182.844 149.063 183.158 149.063 183.526ZM159.608 180.364V181.756H155.218V180.364H159.608ZM156.302 178.534H158.102V185.703C158.102 185.945 158.138 186.131 158.211 186.26C158.287 186.386 158.387 186.472 158.509 186.518C158.632 186.565 158.768 186.588 158.917 186.588C159.03 186.588 159.132 186.58 159.225 186.563C159.321 186.547 159.394 186.532 159.444 186.518L159.747 187.925C159.651 187.959 159.514 187.995 159.335 188.035C159.159 188.075 158.944 188.098 158.688 188.104C158.238 188.118 157.832 188.05 157.47 187.901C157.109 187.748 156.822 187.513 156.61 187.195C156.401 186.876 156.299 186.479 156.302 186.001V178.534ZM166.386 183.526V188H164.586V177.818H166.346V181.661H166.435C166.614 181.23 166.891 180.891 167.266 180.642C167.643 180.39 168.124 180.264 168.707 180.264C169.238 180.264 169.7 180.375 170.094 180.597C170.489 180.819 170.794 181.144 171.009 181.572C171.228 181.999 171.337 182.521 171.337 183.138V188H169.538V183.416C169.538 182.902 169.405 182.503 169.14 182.218C168.878 181.93 168.51 181.786 168.036 181.786C167.718 181.786 167.433 181.855 167.181 181.994C166.932 182.13 166.737 182.327 166.594 182.586C166.455 182.844 166.386 183.158 166.386 183.526ZM175.369 188.154C174.885 188.154 174.449 188.068 174.062 187.896C173.677 187.72 173.372 187.461 173.147 187.12C172.925 186.779 172.814 186.358 172.814 185.857C172.814 185.426 172.893 185.07 173.052 184.788C173.212 184.507 173.429 184.281 173.704 184.112C173.979 183.943 174.289 183.816 174.633 183.729C174.981 183.64 175.341 183.575 175.712 183.536C176.16 183.489 176.523 183.448 176.801 183.411C177.079 183.371 177.282 183.312 177.408 183.232C177.537 183.149 177.601 183.022 177.601 182.849V182.82C177.601 182.445 177.49 182.155 177.268 181.95C177.046 181.744 176.726 181.641 176.309 181.641C175.868 181.641 175.518 181.737 175.26 181.93C175.005 182.122 174.832 182.349 174.743 182.611L173.062 182.372C173.195 181.908 173.414 181.52 173.719 181.209C174.024 180.894 174.396 180.659 174.837 180.503C175.278 180.344 175.765 180.264 176.299 180.264C176.667 180.264 177.033 180.307 177.398 180.393C177.762 180.48 178.095 180.622 178.397 180.821C178.699 181.017 178.94 181.283 179.123 181.621C179.308 181.96 179.401 182.382 179.401 182.889V188H177.671V186.951H177.611C177.502 187.163 177.348 187.362 177.149 187.548C176.954 187.73 176.707 187.877 176.408 187.99C176.113 188.099 175.767 188.154 175.369 188.154ZM175.837 186.832C176.198 186.832 176.511 186.76 176.776 186.618C177.041 186.472 177.245 186.28 177.388 186.041C177.534 185.803 177.606 185.542 177.606 185.261V184.361C177.55 184.407 177.454 184.45 177.318 184.49C177.186 184.53 177.036 184.565 176.871 184.594C176.705 184.624 176.541 184.651 176.378 184.674C176.216 184.697 176.075 184.717 175.956 184.734C175.687 184.77 175.447 184.83 175.235 184.913C175.023 184.996 174.855 185.112 174.733 185.261C174.61 185.406 174.549 185.595 174.549 185.827C174.549 186.159 174.67 186.409 174.912 186.578C175.154 186.747 175.462 186.832 175.837 186.832ZM187.246 182.382L185.606 182.561C185.559 182.395 185.478 182.24 185.362 182.094C185.249 181.948 185.097 181.83 184.905 181.741C184.713 181.651 184.477 181.607 184.199 181.607C183.824 181.607 183.509 181.688 183.254 181.85C183.002 182.013 182.878 182.223 182.881 182.482C182.878 182.704 182.959 182.884 183.125 183.023C183.294 183.163 183.572 183.277 183.96 183.366L185.263 183.645C185.985 183.801 186.522 184.048 186.873 184.386C187.228 184.724 187.407 185.166 187.41 185.713C187.407 186.194 187.266 186.618 186.988 186.986C186.713 187.35 186.33 187.635 185.839 187.841C185.349 188.046 184.785 188.149 184.149 188.149C183.214 188.149 182.462 187.954 181.892 187.562C181.322 187.168 180.982 186.62 180.873 185.917L182.628 185.748C182.707 186.093 182.876 186.353 183.135 186.528C183.393 186.704 183.73 186.792 184.144 186.792C184.572 186.792 184.915 186.704 185.173 186.528C185.435 186.353 185.566 186.136 185.566 185.877C185.566 185.658 185.481 185.478 185.312 185.335C185.147 185.193 184.888 185.083 184.537 185.007L183.234 184.734C182.502 184.581 181.96 184.324 181.609 183.963C181.257 183.598 181.083 183.138 181.087 182.581C181.083 182.11 181.211 181.703 181.469 181.358C181.731 181.01 182.094 180.741 182.558 180.553C183.025 180.36 183.564 180.264 184.174 180.264C185.069 180.264 185.773 180.455 186.287 180.836C186.804 181.217 187.124 181.732 187.246 182.382ZM192.447 188V177.818H194.246V181.626H194.321C194.414 181.441 194.545 181.244 194.714 181.035C194.883 180.823 195.111 180.642 195.4 180.493C195.688 180.34 196.056 180.264 196.503 180.264C197.093 180.264 197.625 180.415 198.099 180.717C198.577 181.015 198.954 181.457 199.233 182.044C199.515 182.627 199.655 183.343 199.655 184.192C199.655 185.03 199.518 185.743 199.243 186.33C198.968 186.916 198.593 187.364 198.119 187.672C197.645 187.98 197.108 188.134 196.508 188.134C196.071 188.134 195.708 188.061 195.42 187.915C195.131 187.77 194.899 187.594 194.724 187.388C194.551 187.18 194.417 186.982 194.321 186.797H194.217V188H192.447ZM194.212 184.182C194.212 184.676 194.281 185.108 194.42 185.479C194.563 185.851 194.767 186.141 195.032 186.349C195.3 186.555 195.625 186.658 196.006 186.658C196.404 186.658 196.737 186.552 197.006 186.339C197.274 186.124 197.476 185.831 197.612 185.46C197.751 185.085 197.821 184.659 197.821 184.182C197.821 183.708 197.753 183.287 197.617 182.919C197.481 182.551 197.279 182.263 197.011 182.054C196.742 181.845 196.407 181.741 196.006 181.741C195.622 181.741 195.295 181.842 195.027 182.044C194.758 182.246 194.555 182.53 194.415 182.894C194.28 183.259 194.212 183.688 194.212 184.182ZM204.566 188.149C203.801 188.149 203.139 187.99 202.582 187.672C202.029 187.35 201.603 186.896 201.305 186.31C201.006 185.72 200.857 185.025 200.857 184.227C200.857 183.441 201.006 182.752 201.305 182.158C201.606 181.562 202.027 181.098 202.568 180.766C203.108 180.432 203.743 180.264 204.472 180.264C204.942 180.264 205.386 180.34 205.804 180.493C206.225 180.642 206.596 180.874 206.918 181.189C207.243 181.504 207.498 181.905 207.683 182.392C207.869 182.876 207.962 183.453 207.962 184.122V184.674H201.703V183.461H206.237C206.233 183.116 206.159 182.81 206.013 182.541C205.867 182.269 205.663 182.056 205.401 181.9C205.143 181.744 204.841 181.666 204.497 181.666C204.129 181.666 203.805 181.756 203.527 181.935C203.249 182.11 203.032 182.342 202.876 182.631C202.723 182.916 202.645 183.229 202.642 183.57V184.629C202.642 185.073 202.723 185.455 202.886 185.773C203.048 186.088 203.275 186.33 203.567 186.499C203.859 186.664 204.2 186.747 204.591 186.747C204.853 186.747 205.09 186.711 205.302 186.638C205.514 186.562 205.698 186.451 205.854 186.305C206.01 186.159 206.127 185.978 206.207 185.763L207.887 185.952C207.781 186.396 207.579 186.784 207.281 187.115C206.986 187.443 206.608 187.698 206.147 187.881C205.686 188.06 205.159 188.149 204.566 188.149ZM212.865 188.149C212.099 188.149 211.438 187.99 210.881 187.672C210.328 187.35 209.902 186.896 209.604 186.31C209.305 185.72 209.156 185.025 209.156 184.227C209.156 183.441 209.305 182.752 209.604 182.158C209.905 181.562 210.326 181.098 210.866 180.766C211.407 180.432 212.041 180.264 212.771 180.264C213.241 180.264 213.685 180.34 214.103 180.493C214.524 180.642 214.895 180.874 215.217 181.189C215.541 181.504 215.797 181.905 215.982 182.392C216.168 182.876 216.261 183.453 216.261 184.122V184.674H210.001V183.461H214.535C214.532 183.116 214.458 182.81 214.312 182.541C214.166 182.269 213.962 182.056 213.7 181.9C213.442 181.744 213.14 181.666 212.795 181.666C212.427 181.666 212.104 181.756 211.826 181.935C211.547 182.11 211.33 182.342 211.175 182.631C211.022 182.916 210.944 183.229 210.941 183.57V184.629C210.941 185.073 211.022 185.455 211.185 185.773C211.347 186.088 211.574 186.33 211.866 186.499C212.157 186.664 212.499 186.747 212.89 186.747C213.152 186.747 213.389 186.711 213.601 186.638C213.813 186.562 213.997 186.451 214.153 186.305C214.308 186.159 214.426 185.978 214.506 185.763L216.186 185.952C216.08 186.396 215.878 186.784 215.579 187.115C215.284 187.443 214.907 187.698 214.446 187.881C213.985 188.06 213.458 188.149 212.865 188.149ZM219.583 183.526V188H217.783V180.364H219.503V181.661H219.593C219.768 181.234 220.049 180.894 220.433 180.642C220.821 180.39 221.3 180.264 221.87 180.264C222.397 180.264 222.856 180.377 223.247 180.602C223.641 180.828 223.946 181.154 224.162 181.582C224.38 182.009 224.488 182.528 224.485 183.138V188H222.685V183.416C222.685 182.906 222.553 182.506 222.287 182.218C222.026 181.93 221.663 181.786 221.199 181.786C220.884 181.786 220.604 181.855 220.358 181.994C220.116 182.13 219.926 182.327 219.787 182.586C219.651 182.844 219.583 183.158 219.583 183.526ZM81.0159 199.382L79.3753 199.561C79.3289 199.395 79.2477 199.24 79.1317 199.094C79.019 198.948 78.8665 198.83 78.6743 198.741C78.482 198.651 78.2467 198.607 77.9683 198.607C77.5938 198.607 77.2789 198.688 77.0237 198.85C76.7718 199.013 76.6475 199.223 76.6508 199.482C76.6475 199.704 76.7287 199.884 76.8944 200.023C77.0635 200.163 77.3419 200.277 77.7297 200.366L79.0322 200.645C79.7548 200.801 80.2917 201.048 80.643 201.386C80.9977 201.724 81.1766 202.166 81.18 202.713C81.1766 203.194 81.0358 203.618 80.7574 203.986C80.4823 204.35 80.0995 204.635 79.6089 204.841C79.1184 205.046 78.555 205.149 77.9186 205.149C76.9839 205.149 76.2316 204.954 75.6615 204.562C75.0914 204.168 74.7517 203.62 74.6423 202.917L76.3973 202.748C76.4768 203.093 76.6459 203.353 76.9044 203.528C77.1629 203.704 77.4993 203.792 77.9136 203.792C78.3412 203.792 78.6842 203.704 78.9427 203.528C79.2046 203.353 79.3355 203.136 79.3355 202.877C79.3355 202.658 79.251 202.478 79.0819 202.335C78.9162 202.193 78.6577 202.083 78.3064 202.007L77.0038 201.734C76.2713 201.581 75.7294 201.324 75.3781 200.963C75.0268 200.598 74.8528 200.138 74.8561 199.581C74.8528 199.11 74.9804 198.703 75.2389 198.358C75.5007 198.01 75.8637 197.741 76.3277 197.553C76.795 197.36 77.3336 197.264 77.9434 197.264C78.8383 197.264 79.5426 197.455 80.0564 197.836C80.5734 198.217 80.8933 198.732 81.0159 199.382ZM87.5312 201.788V197.364H89.3309V205H87.5858V203.643H87.5063C87.334 204.07 87.0506 204.42 86.6562 204.692C86.2651 204.964 85.7828 205.099 85.2094 205.099C84.709 205.099 84.2665 204.988 83.882 204.766C83.5009 204.541 83.2026 204.214 82.9871 203.787C82.7717 203.356 82.664 202.836 82.664 202.226V197.364H84.4637V201.947C84.4637 202.431 84.5963 202.816 84.8614 203.101C85.1266 203.386 85.4746 203.528 85.9055 203.528C86.1706 203.528 86.4275 203.464 86.676 203.335C86.9246 203.205 87.1285 203.013 87.2876 202.758C87.45 202.499 87.5312 202.176 87.5312 201.788ZM94.5125 205.149C93.7502 205.149 93.0956 204.982 92.5487 204.647C92.0052 204.312 91.5859 203.85 91.2909 203.26C90.9993 202.667 90.8534 201.984 90.8534 201.212C90.8534 200.436 91.0026 199.752 91.3009 199.158C91.5992 198.562 92.0201 198.098 92.5637 197.766C93.1105 197.432 93.7568 197.264 94.5026 197.264C95.1224 197.264 95.6709 197.379 96.1482 197.607C96.6288 197.833 97.0116 198.152 97.2966 198.567C97.5816 198.978 97.7441 199.458 97.7838 200.009H96.0637C95.9941 199.641 95.8283 199.334 95.5665 199.089C95.308 198.84 94.9616 198.716 94.5274 198.716C94.1595 198.716 93.8364 198.815 93.558 199.014C93.2796 199.21 93.0625 199.491 92.9067 199.859C92.7542 200.227 92.678 200.668 92.678 201.182C92.678 201.702 92.7542 202.15 92.9067 202.524C93.0592 202.895 93.2729 203.182 93.548 203.384C93.8264 203.583 94.1529 203.683 94.5274 203.683C94.7926 203.683 95.0296 203.633 95.2384 203.533C95.4505 203.431 95.6278 203.283 95.7703 203.091C95.9128 202.899 96.0106 202.665 96.0637 202.39H97.7838C97.7407 202.93 97.5816 203.409 97.3066 203.827C97.0315 204.241 96.6569 204.566 96.183 204.801C95.709 205.033 95.1522 205.149 94.5125 205.149ZM102.593 205.149C101.83 205.149 101.176 204.982 100.629 204.647C100.085 204.312 99.666 203.85 99.371 203.26C99.0793 202.667 98.9335 201.984 98.9335 201.212C98.9335 200.436 99.0827 199.752 99.3809 199.158C99.6792 198.562 100.1 198.098 100.644 197.766C101.191 197.432 101.837 197.264 102.583 197.264C103.202 197.264 103.751 197.379 104.228 197.607C104.709 197.833 105.092 198.152 105.377 198.567C105.662 198.978 105.824 199.458 105.864 200.009H104.144C104.074 199.641 103.908 199.334 103.647 199.089C103.388 198.84 103.042 198.716 102.608 198.716C102.24 198.716 101.916 198.815 101.638 199.014C101.36 199.21 101.143 199.491 100.987 199.859C100.834 200.227 100.758 200.668 100.758 201.182C100.758 201.702 100.834 202.15 100.987 202.524C101.139 202.895 101.353 203.182 101.628 203.384C101.907 203.583 102.233 203.683 102.608 203.683C102.873 203.683 103.11 203.633 103.318 203.533C103.531 203.431 103.708 203.283 103.85 203.091C103.993 202.899 104.091 202.665 104.144 202.39H105.864C105.821 202.93 105.662 203.409 105.387 203.827C105.112 204.241 104.737 204.566 104.263 204.801C103.789 205.033 103.232 205.149 102.593 205.149ZM110.722 205.149C109.957 205.149 109.296 204.99 108.739 204.672C108.185 204.35 107.759 203.896 107.461 203.31C107.163 202.72 107.014 202.025 107.014 201.227C107.014 200.441 107.163 199.752 107.461 199.158C107.763 198.562 108.184 198.098 108.724 197.766C109.264 197.432 109.899 197.264 110.628 197.264C111.099 197.264 111.543 197.34 111.96 197.493C112.381 197.642 112.752 197.874 113.074 198.189C113.399 198.504 113.654 198.905 113.84 199.392C114.025 199.876 114.118 200.453 114.118 201.122V201.674H107.859V200.461H112.393C112.39 200.116 112.315 199.81 112.169 199.541C112.023 199.269 111.819 199.056 111.558 198.9C111.299 198.744 110.997 198.666 110.653 198.666C110.285 198.666 109.962 198.756 109.683 198.935C109.405 199.11 109.188 199.342 109.032 199.631C108.88 199.916 108.802 200.229 108.798 200.57V201.629C108.798 202.073 108.88 202.455 109.042 202.773C109.204 203.088 109.431 203.33 109.723 203.499C110.015 203.664 110.356 203.747 110.747 203.747C111.009 203.747 111.246 203.711 111.458 203.638C111.67 203.562 111.854 203.451 112.01 203.305C112.166 203.159 112.283 202.978 112.363 202.763L114.043 202.952C113.937 203.396 113.735 203.784 113.437 204.115C113.142 204.443 112.764 204.698 112.303 204.881C111.843 205.06 111.316 205.149 110.722 205.149ZM121.676 199.382L120.035 199.561C119.989 199.395 119.908 199.24 119.792 199.094C119.679 198.948 119.527 198.83 119.334 198.741C119.142 198.651 118.907 198.607 118.628 198.607C118.254 198.607 117.939 198.688 117.684 198.85C117.432 199.013 117.308 199.223 117.311 199.482C117.308 199.704 117.389 199.884 117.555 200.023C117.724 200.163 118.002 200.277 118.39 200.366L119.692 200.645C120.415 200.801 120.952 201.048 121.303 201.386C121.658 201.724 121.837 202.166 121.84 202.713C121.837 203.194 121.696 203.618 121.418 203.986C121.142 204.35 120.76 204.635 120.269 204.841C119.779 205.046 119.215 205.149 118.579 205.149C117.644 205.149 116.892 204.954 116.322 204.562C115.752 204.168 115.412 203.62 115.302 202.917L117.057 202.748C117.137 203.093 117.306 203.353 117.565 203.528C117.823 203.704 118.159 203.792 118.574 203.792C119.001 203.792 119.344 203.704 119.603 203.528C119.865 203.353 119.996 203.136 119.996 202.877C119.996 202.658 119.911 202.478 119.742 202.335C119.576 202.193 119.318 202.083 118.967 202.007L117.664 201.734C116.931 201.581 116.39 201.324 116.038 200.963C115.687 200.598 115.513 200.138 115.516 199.581C115.513 199.11 115.641 198.703 115.899 198.358C116.161 198.01 116.524 197.741 116.988 197.553C117.455 197.36 117.994 197.264 118.604 197.264C119.498 197.264 120.203 197.455 120.717 197.836C121.234 198.217 121.553 198.732 121.676 199.382ZM129.36 199.382L127.719 199.561C127.673 199.395 127.591 199.24 127.475 199.094C127.363 198.948 127.21 198.83 127.018 198.741C126.826 198.651 126.59 198.607 126.312 198.607C125.938 198.607 125.623 198.688 125.367 198.85C125.116 199.013 124.991 199.223 124.995 199.482C124.991 199.704 125.072 199.884 125.238 200.023C125.407 200.163 125.686 200.277 126.073 200.366L127.376 200.645C128.099 200.801 128.635 201.048 128.987 201.386C129.341 201.724 129.52 202.166 129.524 202.713C129.52 203.194 129.38 203.618 129.101 203.986C128.826 204.35 128.443 204.635 127.953 204.841C127.462 205.046 126.899 205.149 126.262 205.149C125.328 205.149 124.575 204.954 124.005 204.562C123.435 204.168 123.095 203.62 122.986 202.917L124.741 202.748C124.821 203.093 124.99 203.353 125.248 203.528C125.507 203.704 125.843 203.792 126.257 203.792C126.685 203.792 127.028 203.704 127.286 203.528C127.548 203.353 127.679 203.136 127.679 202.877C127.679 202.658 127.595 202.478 127.426 202.335C127.26 202.193 127.001 202.083 126.65 202.007L125.348 201.734C124.615 201.581 124.073 201.324 123.722 200.963C123.371 200.598 123.197 200.138 123.2 199.581C123.197 199.11 123.324 198.703 123.583 198.358C123.844 198.01 124.207 197.741 124.671 197.553C125.139 197.36 125.677 197.264 126.287 197.264C127.182 197.264 127.886 197.455 128.4 197.836C128.917 198.217 129.237 198.732 129.36 199.382ZM134.876 197.364V198.756H130.361V197.364H134.876ZM131.49 205V196.643C131.49 196.129 131.596 195.701 131.808 195.36C132.024 195.019 132.312 194.763 132.673 194.594C133.034 194.425 133.436 194.341 133.876 194.341C134.188 194.341 134.465 194.366 134.707 194.415C134.949 194.465 135.128 194.51 135.244 194.55L134.886 195.942C134.809 195.919 134.713 195.895 134.597 195.872C134.481 195.846 134.352 195.832 134.209 195.832C133.875 195.832 133.638 195.914 133.498 196.076C133.363 196.235 133.295 196.464 133.295 196.762V205H131.49ZM141.152 201.788V197.364H142.952V205H141.207V203.643H141.127C140.955 204.07 140.672 204.42 140.277 204.692C139.886 204.964 139.404 205.099 138.831 205.099C138.33 205.099 137.888 204.988 137.503 204.766C137.122 204.541 136.824 204.214 136.608 203.787C136.393 203.356 136.285 202.836 136.285 202.226V197.364H138.085V201.947C138.085 202.431 138.217 202.816 138.483 203.101C138.748 203.386 139.096 203.528 139.527 203.528C139.792 203.528 140.049 203.464 140.297 203.335C140.546 203.205 140.75 203.013 140.909 202.758C141.071 202.499 141.152 202.176 141.152 201.788ZM146.602 194.818V205H144.803V194.818H146.602ZM150.253 194.818V205H148.453V194.818H150.253ZM153.222 207.864C152.977 207.864 152.75 207.844 152.541 207.804C152.335 207.768 152.171 207.724 152.049 207.675L152.466 206.273C152.728 206.349 152.962 206.385 153.167 206.382C153.373 206.379 153.553 206.314 153.709 206.188C153.868 206.066 154.003 205.86 154.112 205.572L154.266 205.159L151.497 197.364H153.406L155.166 203.131H155.245L157.01 197.364H158.924L155.867 205.925C155.724 206.329 155.535 206.675 155.3 206.964C155.065 207.255 154.776 207.478 154.435 207.63C154.097 207.786 153.693 207.864 153.222 207.864ZM166.973 205.149C166.211 205.149 165.557 204.982 165.01 204.647C164.466 204.312 164.047 203.85 163.752 203.26C163.46 202.667 163.314 201.984 163.314 201.212C163.314 200.436 163.464 199.752 163.762 199.158C164.06 198.562 164.481 198.098 165.025 197.766C165.571 197.432 166.218 197.264 166.964 197.264C167.583 197.264 168.132 197.379 168.609 197.607C169.09 197.833 169.473 198.152 169.758 198.567C170.043 198.978 170.205 199.458 170.245 200.009H168.525C168.455 199.641 168.289 199.334 168.027 199.089C167.769 198.84 167.423 198.716 166.988 198.716C166.62 198.716 166.297 198.815 166.019 199.014C165.741 199.21 165.523 199.491 165.368 199.859C165.215 200.227 165.139 200.668 165.139 201.182C165.139 201.702 165.215 202.15 165.368 202.524C165.52 202.895 165.734 203.182 166.009 203.384C166.287 203.583 166.614 203.683 166.988 203.683C167.254 203.683 167.491 203.633 167.699 203.533C167.911 203.431 168.089 203.283 168.231 203.091C168.374 202.899 168.472 202.665 168.525 202.39H170.245C170.202 202.93 170.043 203.409 169.767 203.827C169.492 204.241 169.118 204.566 168.644 204.801C168.17 205.033 167.613 205.149 166.973 205.149ZM171.723 205V197.364H173.468V198.636H173.547C173.686 198.196 173.925 197.856 174.263 197.617C174.604 197.375 174.994 197.254 175.431 197.254C175.531 197.254 175.642 197.259 175.764 197.269C175.89 197.276 175.995 197.287 176.078 197.304V198.96C176.001 198.933 175.88 198.91 175.715 198.89C175.552 198.867 175.395 198.855 175.242 198.855C174.914 198.855 174.619 198.926 174.358 199.069C174.099 199.208 173.895 199.402 173.746 199.651C173.597 199.899 173.522 200.186 173.522 200.511V205H171.723ZM180.34 205.149C179.574 205.149 178.913 204.99 178.356 204.672C177.802 204.35 177.377 203.896 177.078 203.31C176.78 202.72 176.631 202.025 176.631 201.227C176.631 200.441 176.78 199.752 177.078 199.158C177.38 198.562 177.801 198.098 178.341 197.766C178.881 197.432 179.516 197.264 180.245 197.264C180.716 197.264 181.16 197.34 181.578 197.493C181.998 197.642 182.37 197.874 182.691 198.189C183.016 198.504 183.271 198.905 183.457 199.392C183.642 199.876 183.735 200.453 183.735 201.122V201.674H177.476V200.461H182.01C182.007 200.116 181.932 199.81 181.786 199.541C181.64 199.269 181.437 199.056 181.175 198.9C180.916 198.744 180.615 198.666 180.27 198.666C179.902 198.666 179.579 198.756 179.301 198.935C179.022 199.11 178.805 199.342 178.649 199.631C178.497 199.916 178.419 200.229 178.416 200.57V201.629C178.416 202.073 178.497 202.455 178.659 202.773C178.822 203.088 179.049 203.33 179.34 203.499C179.632 203.664 179.973 203.747 180.364 203.747C180.626 203.747 180.863 203.711 181.075 203.638C181.287 203.562 181.471 203.451 181.627 203.305C181.783 203.159 181.901 202.978 181.98 202.763L183.661 202.952C183.555 203.396 183.352 203.784 183.054 204.115C182.759 204.443 182.381 204.698 181.921 204.881C181.46 205.06 180.933 205.149 180.34 205.149ZM187.455 205.154C186.971 205.154 186.535 205.068 186.148 204.896C185.763 204.72 185.458 204.461 185.233 204.12C185.011 203.779 184.9 203.358 184.9 202.857C184.9 202.426 184.979 202.07 185.138 201.788C185.297 201.507 185.515 201.281 185.79 201.112C186.065 200.943 186.375 200.816 186.719 200.729C187.067 200.64 187.427 200.575 187.798 200.536C188.246 200.489 188.609 200.448 188.887 200.411C189.165 200.371 189.368 200.312 189.494 200.232C189.623 200.149 189.687 200.022 189.687 199.849V199.82C189.687 199.445 189.576 199.155 189.354 198.95C189.132 198.744 188.812 198.641 188.395 198.641C187.954 198.641 187.604 198.737 187.346 198.93C187.091 199.122 186.918 199.349 186.829 199.611L185.148 199.372C185.281 198.908 185.5 198.52 185.805 198.209C186.11 197.894 186.482 197.659 186.923 197.503C187.364 197.344 187.851 197.264 188.385 197.264C188.753 197.264 189.119 197.307 189.484 197.393C189.848 197.48 190.181 197.622 190.483 197.821C190.784 198.017 191.026 198.283 191.209 198.621C191.394 198.96 191.487 199.382 191.487 199.889V205H189.757V203.951H189.697C189.588 204.163 189.434 204.362 189.235 204.548C189.039 204.73 188.793 204.877 188.494 204.99C188.199 205.099 187.853 205.154 187.455 205.154ZM187.922 203.832C188.284 203.832 188.597 203.76 188.862 203.618C189.127 203.472 189.331 203.28 189.474 203.041C189.619 202.803 189.692 202.542 189.692 202.261V201.361C189.636 201.407 189.54 201.45 189.404 201.49C189.271 201.53 189.122 201.565 188.957 201.594C188.791 201.624 188.627 201.651 188.464 201.674C188.302 201.697 188.161 201.717 188.042 201.734C187.773 201.77 187.533 201.83 187.321 201.913C187.109 201.996 186.941 202.112 186.819 202.261C186.696 202.406 186.635 202.595 186.635 202.827C186.635 203.159 186.756 203.409 186.998 203.578C187.24 203.747 187.548 203.832 187.922 203.832ZM197.11 197.364V198.756H192.72V197.364H197.11ZM193.804 195.534H195.604V202.703C195.604 202.945 195.64 203.131 195.713 203.26C195.789 203.386 195.889 203.472 196.011 203.518C196.134 203.565 196.27 203.588 196.419 203.588C196.532 203.588 196.634 203.58 196.727 203.563C196.823 203.547 196.896 203.532 196.946 203.518L197.249 204.925C197.153 204.959 197.016 204.995 196.837 205.035C196.661 205.075 196.445 205.098 196.19 205.104C195.739 205.118 195.333 205.05 194.972 204.901C194.611 204.748 194.324 204.513 194.112 204.195C193.903 203.876 193.801 203.479 193.804 203.001V195.534ZM201.914 205.149C201.148 205.149 200.487 204.99 199.93 204.672C199.377 204.35 198.951 203.896 198.652 203.31C198.354 202.72 198.205 202.025 198.205 201.227C198.205 200.441 198.354 199.752 198.652 199.158C198.954 198.562 199.375 198.098 199.915 197.766C200.455 197.432 201.09 197.264 201.819 197.264C202.29 197.264 202.734 197.34 203.152 197.493C203.573 197.642 203.944 197.874 204.265 198.189C204.59 198.504 204.845 198.905 205.031 199.392C205.217 199.876 205.309 200.453 205.309 201.122V201.674H199.05V200.461H203.584C203.581 200.116 203.506 199.81 203.361 199.541C203.215 199.269 203.011 199.056 202.749 198.9C202.491 198.744 202.189 198.666 201.844 198.666C201.476 198.666 201.153 198.756 200.875 198.935C200.596 199.11 200.379 199.342 200.223 199.631C200.071 199.916 199.993 200.229 199.99 200.57V201.629C199.99 202.073 200.071 202.455 200.233 202.773C200.396 203.088 200.623 203.33 200.915 203.499C201.206 203.664 201.548 203.747 201.939 203.747C202.2 203.747 202.437 203.711 202.65 203.638C202.862 203.562 203.046 203.451 203.201 203.305C203.357 203.159 203.475 202.978 203.554 202.763L205.235 202.952C205.129 203.396 204.927 203.784 204.628 204.115C204.333 204.443 203.955 204.698 203.495 204.881C203.034 205.06 202.507 205.149 201.914 205.149ZM209.666 205.134C209.066 205.134 208.529 204.98 208.055 204.672C207.581 204.364 207.206 203.916 206.931 203.33C206.656 202.743 206.519 202.03 206.519 201.192C206.519 200.343 206.658 199.627 206.936 199.044C207.218 198.457 207.598 198.015 208.075 197.717C208.552 197.415 209.084 197.264 209.671 197.264C210.118 197.264 210.486 197.34 210.774 197.493C211.063 197.642 211.291 197.823 211.46 198.035C211.63 198.244 211.76 198.441 211.853 198.626H211.928V194.818H213.733V205H211.963V203.797H211.853C211.76 203.982 211.626 204.18 211.451 204.388C211.275 204.594 211.043 204.77 210.755 204.915C210.466 205.061 210.103 205.134 209.666 205.134ZM210.168 203.658C210.549 203.658 210.874 203.555 211.142 203.349C211.411 203.141 211.615 202.851 211.754 202.479C211.893 202.108 211.963 201.676 211.963 201.182C211.963 200.688 211.893 200.259 211.754 199.894C211.618 199.53 211.416 199.246 211.147 199.044C210.882 198.842 210.556 198.741 210.168 198.741C209.767 198.741 209.432 198.845 209.164 199.054C208.895 199.263 208.693 199.551 208.557 199.919C208.421 200.287 208.353 200.708 208.353 201.182C208.353 201.659 208.421 202.085 208.557 202.46C208.696 202.831 208.9 203.124 209.169 203.339C209.44 203.552 209.773 203.658 210.168 203.658ZM216.759 205.109C216.457 205.109 216.199 205.003 215.983 204.791C215.768 204.579 215.662 204.321 215.665 204.016C215.662 203.717 215.768 203.462 215.983 203.25C216.199 203.038 216.457 202.932 216.759 202.932C217.051 202.932 217.304 203.038 217.52 203.25C217.738 203.462 217.849 203.717 217.853 204.016C217.849 204.218 217.796 204.402 217.694 204.567C217.594 204.733 217.462 204.866 217.296 204.965C217.133 205.061 216.955 205.109 216.759 205.109Z" fill="black" fill-opacity="0.5"/>
</svg>
