<svg width="61" height="62" viewBox="0 0 61 62" fill="none" xmlns="http://www.w3.org/2000/svg">
<path fill-rule="evenodd" clip-rule="evenodd" d="M32.4062 4.28223H28.5938V10.001H32.4062V4.28223ZM57.1875 29.0635H51.4688V32.876H57.1875V29.0635ZM28.5938 57.6572V51.9385H32.4062V57.6572H28.5938ZM9.53125 29.0635H3.8125V32.876H9.53125V29.0635ZM10.3889 13.5915L13.0848 10.8956L17.1285 14.9394L14.4327 17.6353L10.3889 13.5915ZM47.8868 10.8771L43.8431 14.9209L46.5389 17.6167L50.5827 13.573L47.8868 10.8771ZM43.8481 47.0137L46.544 44.3178L50.5878 48.3616L47.8919 51.0575L43.8481 47.0137ZM10.4272 48.3738L14.4684 44.3135L17.1563 47.0204L13.115 51.0616L10.4272 48.3738ZM22.0276 18.2898C24.5354 16.6141 27.4838 15.7197 30.5 15.7197C34.5446 15.7197 38.4235 17.3264 41.2834 20.1863C44.1433 23.0463 45.75 26.9252 45.75 30.9697C45.75 33.9859 44.8556 36.9343 43.1799 39.4422C41.5042 41.95 39.1225 43.9047 36.3359 45.0589C33.5494 46.2131 30.4831 46.5151 27.5249 45.9267C24.5667 45.3383 21.8494 43.8859 19.7166 41.7531C17.5839 39.6204 16.1314 36.9031 15.543 33.9449C14.9546 30.9866 15.2566 27.9204 16.4108 25.1338C17.5651 22.3472 19.5197 19.9655 22.0276 18.2898ZM22.4125 39.0573C24.5574 41.2022 27.4666 42.4072 30.5 42.4072V19.5322C27.4666 19.5322 24.5574 20.7372 22.4125 22.8822C20.2675 25.0271 19.0625 27.9363 19.0625 30.9697C19.0625 34.0031 20.2675 36.9123 22.4125 39.0573Z" fill="#595959"/>
</svg>
