<svg width="56" height="58" viewBox="0 0 56 58" fill="none" xmlns="http://www.w3.org/2000/svg">
<path fill-rule="evenodd" clip-rule="evenodd" d="M24.125 4.8125V8.6875H20.6375C20.25 11.0125 19.0875 15.0813 15.4062 18.9563C17.15 20.1187 19.475 21.475 22.1875 22.4438L20.8313 26.125C17.3438 24.9625 14.6313 23.4125 12.5 21.6687C10.3687 23.2188 7.65625 24.7687 4.16875 26.125L2.8125 22.4438C5.525 21.475 7.85 20.3125 9.4 18.9563C7.4625 16.825 6.10625 14.5 5.33125 12.5625H9.7875C10.3687 13.725 11.3375 15.0813 12.5 16.4375C15.2125 13.5312 16.375 10.4312 16.7625 8.6875H0.875V4.8125H10.5625V0.9375H14.4375V4.8125H24.125ZM51.25 28.0625H47.375V20.3125C47.375 14.8875 43.1125 10.625 37.6875 10.625H29.9375V6.75H37.6875C45.2438 6.75 51.25 12.7562 51.25 20.3125V28.0625ZM22.1875 53.25H28V49.375H22.1875C16.7625 49.375 12.5 45.1125 12.5 39.6875V31.9375H8.625V39.6875C8.625 47.2438 14.6313 53.25 22.1875 53.25ZM55.5121 57.125H51.2496L49.5059 53.25H39.2371L37.6871 57.125H33.4246L42.3371 35.8125H46.5996L55.5121 57.125ZM44.4684 40.85L40.9809 49.375H47.9559L44.4684 40.85Z" fill="#595959"/>
</svg>
