<svg width="52" height="52" viewBox="0 0 52 52" fill="none" xmlns="http://www.w3.org/2000/svg">
<path d="M22.2969 0C16.1615 0 11.1484 5.01075 11.1484 11.1433C11.1484 17.2758 16.1615 22.2865 22.2969 22.2865C28.4322 22.2865 33.4453 17.2758 33.4453 11.1433C33.4453 5.01075 28.4322 0 22.2969 0ZM22.2969 3.71442C26.4236 3.71442 29.7292 7.02025 29.7292 11.1433C29.7292 15.2681 26.4236 18.5721 22.2969 18.5721C18.1701 18.5721 14.8646 15.2681 14.8646 11.1433C14.8646 7.02025 18.1701 3.71442 22.2969 3.71442ZM16.7226 26.0009C7.48989 26.0009 0 33.4873 0 42.7158V46.4302C0 46.9228 0.19576 47.3952 0.544217 47.7435C0.892673 48.0918 1.36528 48.2874 1.85807 48.2874H22.0144C22.5072 48.2874 22.9798 48.0918 23.3283 47.7435C23.6767 47.3952 23.8725 46.9228 23.8725 46.4302C23.8725 45.9377 23.6767 45.4653 23.3283 45.117C22.9798 44.7687 22.5072 44.573 22.0144 44.573H3.71614V42.7158C3.71614 35.482 9.48546 29.7153 16.7226 29.7153H24.1847C24.6775 29.7153 25.1501 29.5197 25.4985 29.1714C25.847 28.8231 26.0427 28.3507 26.0427 27.8581C26.0427 27.3656 25.847 26.8932 25.4985 26.5449C25.1501 26.1966 24.6775 26.0009 24.1847 26.0009H16.7226ZM38.9954 26.0009C38.7508 26.0036 38.5091 26.0545 38.2843 26.1506C38.0594 26.2467 37.8557 26.3862 37.6848 26.5612C37.5139 26.7361 37.3793 26.943 37.2885 27.17C37.1978 27.397 37.1527 27.6397 37.1559 27.8841V29.9011C35.9916 30.1436 34.885 30.6083 33.8968 31.2698L32.4698 29.8435C32.0313 29.3941 31.5352 29.2232 31.0651 29.2492C29.6585 29.3235 28.4917 31.1565 29.8425 32.4696L31.2751 33.9034C30.6167 34.8912 30.1549 35.9966 29.915 37.159H27.8971C25.385 37.1238 25.385 40.9106 27.8971 40.8735H29.9224C30.1639 42.0454 30.6377 43.1355 31.2788 44.1031L29.8351 45.5462C28.0327 47.2975 30.7121 49.9738 32.4624 48.1723L33.9042 46.733C34.8906 47.3916 35.9945 47.8544 37.1559 48.0961V50.1168C37.1187 52.6277 40.9073 52.6277 40.872 50.1168V48.1017C42.0318 47.8608 43.1345 47.3993 44.1199 46.7422L45.5692 48.1909C45.7395 48.3724 45.9446 48.5179 46.1722 48.6186C46.3999 48.7194 46.6455 48.7734 46.8944 48.7774C47.1434 48.7815 47.3906 48.7355 47.6214 48.6421C47.8522 48.5488 48.0619 48.4101 48.238 48.2342C48.4141 48.0583 48.553 47.8488 48.6466 47.6182C48.7401 47.3875 48.7863 47.1405 48.7824 46.8916C48.7786 46.6428 48.7247 46.3973 48.6241 46.1697C48.5234 45.9421 48.378 45.737 48.1965 45.5666L46.7528 44.1217C47.4111 43.1375 47.8741 42.036 48.1166 40.8772H50.1419C50.6347 40.8772 51.1073 40.6815 51.4558 40.3332C51.8042 39.9849 52 39.5125 52 39.02C52 38.5274 51.8042 38.055 51.4558 37.7067C51.1073 37.3584 50.6347 37.1628 50.1419 37.1628H48.1241C47.8843 35.9926 47.4199 34.8801 46.7565 33.8866L48.1891 32.4547C48.3676 32.2822 48.5095 32.0756 48.6064 31.8472C48.7033 31.6187 48.7533 31.3731 48.7533 31.125C48.7533 30.8768 48.7033 30.6312 48.6064 30.4028C48.5095 30.1743 48.3676 29.9677 48.1891 29.7952C47.8365 29.4517 47.3623 29.2614 46.8699 29.2659C46.379 29.2743 45.9114 29.4767 45.5692 29.8286L44.1329 31.2643C43.1455 30.6051 42.0402 30.1422 40.8776 29.9011V27.8841C40.8816 27.6364 40.8358 27.3903 40.743 27.1605C40.6502 26.9307 40.5122 26.7218 40.3373 26.5463C40.1623 26.3707 39.9539 26.232 39.7244 26.1383C39.4948 26.0446 39.2488 25.9979 39.0009 26.0009H38.9954ZM39.0195 33.4298C42.1188 33.4298 44.5937 35.9017 44.5937 39.0014C44.5937 42.0992 42.1188 44.573 39.0195 44.573C35.9184 44.573 33.4453 42.0992 33.4453 39.0014C33.4453 35.9017 35.9184 33.4298 39.0195 33.4298Z" fill="#595959"/>
</svg>
