<svg width="37" height="45" viewBox="0 0 52 52" fill="none" xmlns="http://www.w3.org/2000/svg">
<path d="M15.2071 0.266602C9.83256 0.266602 5.43523 4.49481 5.43523 9.66262V15.9266C2.66655 15.9266 0.549316 17.9624 0.549316 20.6246V30.0207C0.549316 33.7791 2.01509 37.3809 4.78378 40.0431C7.55246 42.7053 11.2983 44.1147 15.2071 44.1147C22.2102 44.1147 28.0733 39.4167 29.5391 33.1527H29.8648C31.6563 33.1527 33.285 32.5263 34.425 31.2735C35.7279 30.0207 36.3794 28.4547 36.3794 26.8887C36.3794 25.3227 35.7279 23.6001 34.425 22.5039C33.1221 21.4077 31.6563 20.6246 29.8648 20.6246C29.8648 17.9624 27.7476 15.9266 24.9789 15.9266V9.66262C24.9789 4.49481 20.5816 0.266602 15.2071 0.266602ZM32.1449 24.6963C32.7964 25.3227 33.1221 26.1057 33.1221 26.8887C33.1221 27.6717 32.7964 28.4547 32.1449 29.0811C31.3306 29.8641 30.0277 30.1773 28.7248 29.8641C27.4219 29.3943 26.6075 28.2981 26.6075 26.8887C26.6075 26.1057 26.9333 25.3227 27.5847 24.6963C27.9105 24.3831 28.399 24.0699 28.8876 23.9133C29.2134 23.7567 29.5391 23.7567 29.8648 23.7567C30.6791 23.7567 31.4935 24.0699 32.1449 24.6963ZM26.6075 20.6246V21.5643C26.119 21.8775 25.6304 22.1907 25.3046 22.5039C24.4903 23.2869 23.8389 24.2265 23.676 25.3227H8.69251C7.71533 25.3227 7.06387 25.9491 7.06387 26.8887V30.0207C7.06387 30.9603 7.71533 31.5867 8.69251 31.5867C9.6697 31.5867 10.3212 30.9603 10.3212 30.0207V28.4547H13.5784V30.0207C13.5784 30.9603 14.2299 31.5867 15.2071 31.5867C16.1843 31.5867 16.8357 30.9603 16.8357 30.0207V28.4547H23.5131C24.0017 30.0207 24.9789 31.2735 26.2818 32.2131C25.3046 37.2243 20.7444 40.9827 15.2071 40.9827C12.1127 40.9827 9.34397 39.8865 7.06387 37.8507C4.94664 35.8149 3.80659 32.9961 3.80659 30.0207V20.6246C3.80659 19.685 4.45805 19.0586 5.43523 19.0586H24.9789C25.9561 19.0586 26.6075 19.685 26.6075 20.6246ZM8.69251 15.9266V9.66262C8.69251 6.21742 11.6241 3.39861 15.2071 3.39861C18.7901 3.39861 21.7216 6.21742 21.7216 9.66262V15.9266H8.69251Z" fill="#595959"/>
</svg>
