<svg width="32" height="32" viewBox="0 0 32 32" fill="none" xmlns="http://www.w3.org/2000/svg">
    <path d="M16.934 20.5095C16.7802 20.5686 16.5555 20.6136 16.3236 20.6136C16.0917 20.6136 15.8669 20.571 15.661 20.4929L6 17.2749V23.8386C6 25.1471 7.05768 26.2048 8.36616 26.2048H24.281C25.5895 26.2048 26.6471 25.1471 26.6471 23.8386V17.2749L16.934 20.5095Z" fill="#1DAB29"/>
    <path d="M24.281 11.5815H19.764V10.7202C19.764 9.77137 18.9926 9 18.0438 9H14.6034C13.6545 9 12.8832 9.77137 12.8832 10.7202V11.5815H8.36616C7.05768 11.5815 6 12.6392 6 13.9476V15.9187L16.1177 19.2905C16.1863 19.3165 16.255 19.3259 16.3236 19.3259C16.3922 19.3259 16.4608 19.3165 16.5294 19.2905L26.6471 15.9187V13.9476C26.6471 12.6392 25.5895 11.5815 24.281 11.5815ZM14.6034 11.5815V10.7202H18.0438V11.5815H14.6034Z" fill="#1DAB29"/>
</svg>
