<svg width="32" height="32" viewBox="0 0 32 32" fill="none" xmlns="http://www.w3.org/2000/svg">
    <path d="M19.1849 26.1485H12.8152C12.4863 26.1485 12.2213 25.8811 12.2213 25.5546V19.7788H6.44547C6.11658 19.7788 5.85156 19.5114 5.85156 19.1849V12.8152C5.85156 12.4863 6.11894 12.2213 6.44547 12.2213H12.2213V6.44547C12.2213 6.11657 12.4887 5.85156 12.8152 5.85156H19.1849C19.5138 5.85156 19.7788 6.11894 19.7788 6.44547V12.2213H25.5546C25.8835 12.2213 26.1485 12.4887 26.1485 12.8152V19.1849C26.1485 19.5138 25.8811 19.7788 25.5546 19.7788H19.7788V25.5546C19.7788 25.8835 19.5114 26.1485 19.1849 26.1485Z" fill="#ED2247"/>
</svg>
