<svg width="33" height="33" viewBox="0 0 33 33" fill="none" xmlns="http://www.w3.org/2000/svg">
    <path fill-rule="evenodd" clip-rule="evenodd" d="M10.3251 6.68135H11.7448C12.1565 6.68135 12.4949 7.01497 12.4996 7.42669L9.57267 9.87093V7.43615C9.57267 7.02207 9.91103 6.68135 10.3275 6.68135H10.3251ZM15.5141 28.6796V26.5098C15.5141 25.7763 16.1127 25.1753 16.8486 25.1753H17.1539C17.8874 25.1753 18.4884 25.7739 18.4884 26.5098V28.6796H15.5165H15.5141ZM21.0012 21.9478H12.9989C12.599 21.9478 12.2725 22.2744 12.2725 22.6742V27.6763C12.2725 28.0762 12.599 28.4027 12.9989 28.4027H14.6339V26.5074C14.6339 25.2865 15.6277 24.2951 16.8463 24.2951H17.1515C18.3724 24.2951 19.3639 25.2889 19.3639 26.5074V28.4027H20.9989C21.3988 28.4027 21.7253 28.0762 21.7253 27.6763V22.6742C21.7253 22.2744 21.3988 21.9478 20.9989 21.9478H21.0012ZM17.0001 14.8186C15.8028 14.8186 14.8327 15.7887 14.8327 16.986C14.8327 18.1833 15.8028 19.1534 17.0001 19.1534C18.1973 19.1534 19.1675 18.1833 19.1675 16.986C19.1675 15.7887 18.1973 14.8186 17.0001 14.8186ZM13.8625 21.0676C14.6457 20.2276 15.7602 19.7 17.0001 19.7C18.2399 19.7 19.3544 20.2253 20.1376 21.0676H13.8625ZM17.0001 8.68785L26.0033 16.2028C26.6398 16.7328 27.6336 16.6926 28.2157 16.1129C28.7978 15.5332 28.7528 14.6246 28.1163 14.0945L18.0577 5.69702C17.4567 5.19539 16.5434 5.19539 15.9448 5.69702L5.88619 14.0945C5.24969 14.6269 5.20473 15.5332 5.78681 16.1129C6.36888 16.6926 7.36267 16.7328 7.99917 16.2028L17.0024 8.68785H17.0001ZM8.43454 16.9765V26.1005C8.43454 26.9168 9.09944 27.5817 9.91576 27.5817H11.3899V22.6742C11.3899 21.8839 11.9672 21.2238 12.7197 21.0913C13.271 20.2773 14.0471 19.6337 14.9533 19.2433C14.3381 18.6849 13.9524 17.8804 13.9524 16.986C13.9524 15.3036 15.3153 13.9407 16.9977 13.9407C18.68 13.9407 20.0429 15.3036 20.0429 16.986C20.0429 17.8804 19.6573 18.6873 19.0421 19.2433C19.9483 19.6337 20.7244 20.2797 21.2757 21.0913C22.0305 21.2214 22.6055 21.8816 22.6055 22.6742V27.5817H23.8619C24.6783 27.5817 25.3431 26.9168 25.3431 26.1005V16.8014L16.9977 9.83544L8.55759 16.8795C8.51736 16.9126 8.47477 16.9458 8.43218 16.9765H8.43454Z" fill="#0C99B7"/>
</svg>
