<svg width="60" height="65" viewBox="0 0 60 65" fill="none" xmlns="http://www.w3.org/2000/svg">
<path d="M54.0513 17.6494H31.8569C30.391 17.6533 28.9861 18.2381 27.9495 19.2759C26.9129 20.3137 26.3288 21.7202 26.3249 23.1879V23.4242C26.007 23.3826 25.6867 23.3604 25.3661 23.3578H7.7448C5.69135 23.3597 3.72257 24.1773 2.27056 25.631C0.818548 27.0847 0.00195288 29.0558 0 31.1117V53.8417C0.00195288 55.8976 0.818548 57.8687 2.27056 59.3224C3.72257 60.7762 5.69135 61.5937 7.7448 61.5957H9.41915C9.33152 61.8552 9.28425 62.1267 9.27901 62.4006C9.27901 63.0861 9.551 63.7435 10.0351 64.2282C10.5193 64.7129 11.1759 64.9852 11.8606 64.9852C12.5453 64.9852 13.2019 64.7129 13.6861 64.2282C14.1702 63.7435 14.4422 63.0861 14.4422 62.4006C14.437 62.1267 14.3897 61.8552 14.3021 61.5957H19.7456C19.6579 61.8552 19.6106 62.1267 19.6054 62.4006C19.6054 63.0861 19.8774 63.7435 20.3615 64.2282C20.8457 64.7129 21.5023 64.9852 22.187 64.9852C22.8717 64.9852 23.5283 64.7129 24.0125 64.2282C24.4966 63.7435 24.7686 63.0861 24.7686 62.4006C24.7634 62.1267 24.7161 61.8552 24.6285 61.5957H25.3661C26.5113 61.6006 27.643 61.3482 28.6779 60.8572C29.6049 61.5088 30.7095 61.8594 31.8422 61.8615H33.6714C33.6267 62.0427 33.6044 62.2287 33.6051 62.4154C33.6051 63.1009 33.877 63.7583 34.3612 64.243C34.8453 64.7277 35.502 65 36.1867 65C36.8713 65 37.528 64.7277 38.0121 64.243C38.4963 63.7583 38.7683 63.1009 38.7683 62.4154C38.7689 62.2287 38.7466 62.0427 38.7019 61.8615H47.7006C47.6559 62.0427 47.6336 62.2287 47.6342 62.4154C47.6342 63.1009 47.9062 63.7583 48.3903 64.243C48.8745 64.7277 49.5311 65 50.2158 65C50.9005 65 51.5571 64.7277 52.0413 64.243C52.5254 63.7583 52.7974 63.1009 52.7974 62.4154C52.7981 62.2287 52.7758 62.0427 52.731 61.8615H54.0513C55.5179 61.8596 56.9239 61.2754 57.9609 60.2372C58.9979 59.1989 59.5814 57.7913 59.5833 56.323V23.1879C59.5814 21.7196 58.9979 20.312 57.9609 19.2738C56.9239 18.2355 55.5179 17.6514 54.0513 17.6494ZM57.3705 56.3082C57.3705 57.1896 57.0208 58.0348 56.3984 58.658C55.7759 59.2812 54.9316 59.6313 54.0513 59.6313H31.8569C31.4789 59.6276 31.1045 59.5576 30.7505 59.4246C31.5017 58.7022 32.0993 57.8353 32.5074 56.8759C32.9155 55.9166 33.1258 54.8845 33.1256 53.8417V31.1117C33.1255 30.5401 33.0611 29.9704 32.9338 29.4132H49.5225C51.0712 29.4113 52.556 28.7944 53.6511 27.698C54.7462 26.6016 55.3623 25.1151 55.3643 23.5645C55.3643 23.2708 55.2477 22.989 55.0402 22.7813C54.8327 22.5735 54.5513 22.4568 54.2579 22.4568C53.9644 22.4568 53.683 22.5735 53.4755 22.7813C53.268 22.989 53.1515 23.2708 53.1515 23.5645C53.1515 24.5281 52.7691 25.4523 52.0886 26.1336C51.408 26.815 50.4849 27.1978 49.5225 27.1978H32.0561C31.239 25.8063 30.0093 24.7042 28.5377 24.0445V23.1879C28.5397 22.3072 28.89 21.4631 29.5121 20.8403C30.1341 20.2175 30.9772 19.8668 31.8569 19.8648H54.0513C54.9316 19.8648 55.7759 20.2149 56.3984 20.8381C57.0208 21.4613 57.3705 22.3066 57.3705 23.1879V56.3082ZM50.2158 62.7698C50.118 62.7698 50.0242 62.7309 49.955 62.6617C49.8859 62.5924 49.847 62.4985 49.847 62.4006C49.847 62.3027 49.8859 62.2088 49.955 62.1395C50.0242 62.0703 50.118 62.0314 50.2158 62.0314C50.3136 62.0314 50.4074 62.0703 50.4766 62.1395C50.5458 62.2088 50.5846 62.3027 50.5846 62.4006C50.5846 62.4985 50.5458 62.5924 50.4766 62.6617C50.4074 62.7309 50.3136 62.7698 50.2158 62.7698ZM36.2014 62.7698C36.1036 62.7698 36.0098 62.7309 35.9406 62.6617C35.8715 62.5924 35.8326 62.4985 35.8326 62.4006C35.8326 62.3027 35.8715 62.2088 35.9406 62.1395C36.0098 62.0703 36.1036 62.0314 36.2014 62.0314C36.2992 62.0314 36.393 62.0703 36.4622 62.1395C36.5314 62.2088 36.5702 62.3027 36.5702 62.4006C36.5702 62.4985 36.5314 62.5924 36.4622 62.6617C36.393 62.7309 36.2992 62.7698 36.2014 62.7698ZM25.3661 59.3803H7.7448C6.27762 59.3803 4.87054 58.7967 3.83309 57.7581C2.79563 56.7194 2.2128 55.3107 2.2128 53.8417V31.1117C2.21475 29.6434 2.79821 28.2358 3.83524 27.1975C4.87227 26.1593 6.27822 25.5751 7.7448 25.5732H25.3661C25.6827 25.576 25.9985 25.6056 26.3102 25.6618C26.6889 25.7259 27.0597 25.8298 27.4166 25.9719C27.8063 26.1298 28.1774 26.3304 28.523 26.5701C28.8994 26.8341 29.2414 27.1442 29.5409 27.4932C30.0333 28.0509 30.4049 28.7046 30.6325 29.4132C30.8073 29.9624 30.8969 30.5353 30.8981 31.1117V53.8417C30.9042 54.6273 30.7429 55.4052 30.4249 56.1234C30.1069 56.8416 29.6396 57.4837 29.0541 58.0067C28.7739 58.2528 28.47 58.4705 28.1468 58.6566C27.823 58.8396 27.4821 58.9905 27.1289 59.107C26.5599 59.2926 25.9646 59.3849 25.3661 59.3803ZM22.187 62.7698C22.0892 62.7698 21.9954 62.7309 21.9262 62.6617C21.8571 62.5924 21.8182 62.4985 21.8182 62.4006C21.8182 62.3027 21.8571 62.2088 21.9262 62.1395C21.9954 62.0703 22.0892 62.0314 22.187 62.0314C22.2848 62.0314 22.3786 62.0703 22.4478 62.1395C22.517 62.2088 22.5558 62.3027 22.5558 62.4006C22.5558 62.4985 22.517 62.5924 22.4478 62.6617C22.3786 62.7309 22.2848 62.7698 22.187 62.7698ZM11.8606 62.7698C11.7628 62.7698 11.669 62.7309 11.5998 62.6617C11.5307 62.5924 11.4918 62.4985 11.4918 62.4006C11.4918 62.3027 11.5307 62.2088 11.5998 62.1395C11.669 62.0703 11.7628 62.0314 11.8606 62.0314C11.9584 62.0314 12.0522 62.0703 12.1214 62.1395C12.1906 62.2088 12.2294 62.3027 12.2294 62.4006C12.2294 62.4985 12.1906 62.5924 12.1214 62.6617C12.0522 62.7309 11.9584 62.7698 11.8606 62.7698ZM35.4638 11.4463C35.4638 11.1525 35.5804 10.8707 35.7879 10.663C35.9954 10.4553 36.2768 10.3386 36.5702 10.3386H48.3718C48.6652 10.3386 48.9467 10.4553 49.1542 10.663C49.3616 10.8707 49.4782 11.1525 49.4782 11.4463C49.4782 11.74 49.3616 12.0218 49.1542 12.2295C48.9467 12.4373 48.6652 12.554 48.3718 12.554H47.6342V16.2463H45.4214V12.554H39.5206V16.2463H37.3078V12.554H36.5702C36.2768 12.554 35.9954 12.4373 35.7879 12.2295C35.5804 12.0218 35.4638 11.74 35.4638 11.4463ZM9.52242 1.1077C9.52239 0.816463 9.63693 0.53693 9.84124 0.329614C10.0456 0.122299 10.3232 0.0038832 10.6141 0H22.3124C22.6058 0 22.8873 0.116704 23.0947 0.324439C23.3022 0.532173 23.4188 0.813922 23.4188 1.1077C23.4188 1.40148 23.3022 1.68323 23.0947 1.89097C22.8873 2.0987 22.6058 2.21541 22.3124 2.21541H21.206V21.7848H18.9932V2.21541H13.83V21.7848H11.6172V2.21541H10.6141C10.3232 2.21152 10.0456 2.09311 9.84124 1.88579C9.63693 1.67848 9.52239 1.39894 9.52242 1.1077ZM28.0878 29.8489C28.088 30.7706 27.8626 31.6783 27.4313 32.4926C27.1471 33.0431 26.7732 33.5422 26.3249 33.9696C25.309 34.9569 23.9495 35.5103 22.5337 35.513H10.7321C9.24527 35.4954 7.82598 34.8887 6.78499 33.8258C5.744 32.7628 5.16614 31.3301 5.17795 29.8415C5.17795 29.5477 5.29452 29.266 5.50201 29.0583C5.7095 28.8505 5.99092 28.7338 6.28435 28.7338C6.57779 28.7338 6.85921 28.8505 7.0667 29.0583C7.27419 29.266 7.39075 29.5477 7.39075 29.8415C7.37694 30.7432 7.72101 31.6135 8.34745 32.2614C8.97389 32.9094 9.83151 33.282 10.7321 33.2976H22.5337C23.4343 33.282 24.2919 32.9094 24.9183 32.2614C25.5447 31.6135 25.8888 30.7432 25.875 29.8415C25.8753 29.6678 25.9161 29.4965 25.9942 29.3414C26.0724 29.1862 26.1856 29.0515 26.3249 28.948C26.4825 28.8322 26.6679 28.7603 26.8622 28.7395C27.0566 28.7188 27.2529 28.7499 27.4313 28.8298C27.6279 28.9174 27.7946 29.0604 27.9112 29.2414C28.0278 29.4224 28.0892 29.6335 28.0878 29.8489Z" fill="#B1B1B1"/>
</svg>
