<svg width="68" height="68" viewBox="0 0 68 68" fill="none" xmlns="http://www.w3.org/2000/svg">
<path d="M67.2538 3.26023C66.9765 1.66892 65.6504 0.427228 64.0471 0.246398C60.9006 -0.127317 57.6698 -0.0670401 54.4631 0.366951C43.2637 1.8377 32.9082 8.28729 26.314 17.5819L20.9855 15.846C18.9482 15.1829 16.6697 15.8821 15.3075 17.5699L9.65351 24.5981C7.51972 27.1056 8.46004 31.3009 11.5221 32.5546L19.346 35.9783C17.2484 37.8831 15.6812 40.3062 14.6806 42.1386C14.2104 43.0066 14.2828 44.0433 14.8614 44.839C15.5847 45.8637 16.8626 45.9963 17.9958 45.6708C17.2001 47.5394 16.4768 49.4441 15.8379 51.4212C15.5365 52.3615 15.7897 53.3621 16.5009 54.0251C17.2122 54.6882 18.2248 54.8811 19.141 54.5194C21.0819 53.7599 22.9385 52.9161 24.7468 52.0119C24.2646 53.6514 25.3254 55.5321 27.1337 55.5079C27.5918 55.5079 28.062 55.3753 28.4719 55.1101C30.244 54.001 32.5586 52.2771 34.3187 50.071L38.2246 57.6779C39.6592 60.6556 43.9027 61.3427 46.2776 59.0522L52.9441 52.9763C54.5475 51.5176 55.09 49.191 54.3064 47.2018L52.2449 41.9819C63.6613 32.8801 69.8698 17.5337 67.2176 3.24817L67.2538 3.26023ZM64.8789 3.68216C65.6625 8.11852 65.5902 12.6995 64.7342 17.1238C59.7916 12.9527 54.8368 8.28729 50.3643 3.60983C54.1497 2.63335 58.0797 2.23552 61.9856 2.47663C63.0103 2.62129 64.6257 2.33197 64.891 3.68216H64.8789ZM10.9675 28.5402C10.7626 27.6843 10.9675 26.8043 11.5221 26.105L17.176 19.0768C17.9114 18.1606 19.129 17.7869 20.226 18.1365L24.8794 19.6434C22.2513 23.8507 20.3586 28.492 19.3339 33.3382L12.4745 30.3365C11.715 29.9989 11.1604 29.3479 10.9675 28.5402ZM42.1426 45.4659C40.0208 46.4424 37.8027 47.2139 35.5363 47.7684L21.5642 34.6281C22.0343 32.0242 22.8059 29.4805 23.7944 27.0333L42.9865 45.0801C42.7092 45.2127 42.4319 45.3333 42.1426 45.4659ZM27.206 53.0728L27.0614 52.9763C27.2302 51.602 27.8329 48.1663 25.446 48.9619C23.1072 50.1795 20.7685 51.3006 18.261 52.2771L18.1405 52.1566C18.9602 49.6129 19.9367 47.1898 21.0096 44.7908C21.6606 42.3556 18.2731 43.1633 16.8988 43.4285L16.7903 43.2959C17.7306 41.572 19.2134 39.2694 21.1543 37.5817L32.6309 48.3712C31.0637 50.4206 28.8697 52.0481 27.206 53.0969V53.0728ZM51.3408 51.1922L44.6742 57.268C43.4084 58.4856 41.154 58.1601 40.3825 56.5688L36.9588 49.9022C39.9244 49.0704 42.8177 47.9493 45.5301 46.4906C47.1696 45.5985 48.7609 44.6099 50.292 43.525L52.0882 48.0698C52.5102 49.1307 52.2088 50.3844 51.3408 51.1801V51.1922ZM54.7042 36.4606C51.9797 39.3779 48.7489 41.9337 45.2408 43.8987L24.8312 24.7187C29.3639 15.2794 37.9594 7.68453 47.7845 4.40548C52.7995 9.74598 58.4655 15.0624 64.0953 19.7398C62.4317 25.9122 59.2008 31.6867 54.6922 36.4726L54.7042 36.4606Z" fill="#B1B1B1"/>
<path d="M45.494 13.9051C33.6195 14.6284 34.162 31.8916 46.0485 31.8796C57.923 31.1562 57.3805 13.893 45.494 13.9051ZM50.5693 27.395C44.4693 33.5673 35.1867 24.8513 40.9853 18.3776C47.0732 12.2053 56.3558 20.9092 50.5693 27.395ZM22.9505 58.5459L16.73 65.1643C15.6571 66.3095 17.4051 67.9611 18.4901 66.8159L24.7106 60.1975C25.7835 59.0522 24.0355 57.4007 22.9505 58.5459ZM9.64146 47.9493C9.15925 47.4912 8.39977 47.5153 7.94166 47.9975L0.829029 55.5562C0.370927 56.0384 0.395037 56.81 0.87725 57.256C1.35946 57.7141 2.11895 57.69 2.57705 57.2078L9.68968 49.6491C10.1478 49.1669 10.1237 48.3953 9.64146 47.9493ZM10.9917 58.0034L4.77112 64.6218C4.03574 65.3451 4.63851 66.6833 5.65115 66.6591C5.97665 66.6591 6.29009 66.5265 6.53119 66.2854L12.7517 59.6671C13.8247 58.5098 12.0887 56.8702 10.9917 58.0155V58.0034ZM24.9035 34.4835L28.4116 37.7867C29.5568 38.8596 31.2084 37.1236 30.0632 36.0266L26.5551 32.7234C25.4098 31.6505 23.7582 33.3865 24.9035 34.4835ZM32.7997 41.9216C33.945 42.9946 35.5965 41.2586 34.4513 40.1616L32.6912 38.51C31.546 37.4371 29.8944 39.173 31.0396 40.2701L32.7997 41.9216ZM35.1505 43.9952C35.1746 44.0675 35.2108 44.1278 35.259 44.2001C35.3072 44.2604 35.3554 44.3206 35.4037 44.3809C35.8618 44.8511 36.6574 44.8511 37.1155 44.3809C37.224 44.2604 37.3205 44.1398 37.3687 43.9952C38.0558 41.8131 34.4513 41.8252 35.1505 43.9952Z" fill="#B1B1B1"/>
</svg>
