<svg width="85" height="85" viewBox="0 0 85 85" fill="none" xmlns="http://www.w3.org/2000/svg">
<path fill-rule="evenodd" clip-rule="evenodd" d="M42.5001 0C65.8251 0 84.8015 18.9764 84.8015 42.3014C84.8015 65.6263 65.8251 84.6027 42.5001 84.6027C19.1751 84.6027 0.19873 65.6263 0.19873 42.3014C0.19873 18.9764 19.1751 0 42.5001 0ZM68.8961 63.452C65.7297 67.4114 61.7132 70.6078 57.144 72.8043C52.5747 75.0009 47.5699 76.1414 42.5001 76.1414C37.4303 76.1414 32.4255 75.0009 27.8562 72.8043C23.287 70.6078 19.2704 67.4114 16.104 63.452C19.2704 59.4927 23.287 56.2963 27.8562 54.0997C32.4255 51.9032 37.4303 50.7627 42.5001 50.7627C47.5699 50.7627 52.5747 51.9032 57.144 54.0997C61.7132 56.2963 65.7297 59.4927 68.8961 63.452ZM42.5001 42.3014C44.1666 42.3014 45.8168 41.9731 47.3565 41.3354C48.8962 40.6976 50.2952 39.7628 51.4736 38.5844C52.652 37.406 53.5868 36.007 54.2245 34.4674C54.8623 32.9277 55.1905 31.2775 55.1905 29.611C55.1905 27.9444 54.8623 26.2942 54.2245 24.7545C53.5868 23.2149 52.652 21.8159 51.4736 20.6375C50.2952 19.4591 48.8962 18.5243 47.3565 17.8865C45.8168 17.2488 44.1666 16.9205 42.5001 16.9205C39.1344 16.9205 35.9065 18.2576 33.5266 20.6375C31.1467 23.0174 29.8097 26.2452 29.8097 29.611C29.8097 32.9767 31.1467 36.2045 33.5266 38.5844C35.9065 40.9643 39.1344 42.3014 42.5001 42.3014Z" fill="#5C5F62"/>
</svg>
