<svg width="50" height="64" viewBox="0 0 50 64" fill="none" xmlns="http://www.w3.org/2000/svg">
<path d="M17.054 29.8444C16.7446 29.902 16.4288 29.8096 16.1761 29.5874C15.9234 29.3652 15.7545 29.0315 15.7066 28.6596C15.6586 28.2878 15.7355 27.9082 15.9204 27.6045C16.1053 27.3008 16.383 27.0978 16.6924 27.0402L17.6607 26.6616L16.4357 25.6381C16.2991 25.541 16.1805 25.4115 16.087 25.2575C15.9934 25.1035 15.9271 24.9281 15.8919 24.7422C15.8567 24.5563 15.8534 24.3637 15.8822 24.1762C15.9111 23.9887 15.9714 23.8102 16.0596 23.6517C16.1478 23.4932 16.262 23.358 16.3951 23.2543C16.5283 23.1506 16.6776 23.0807 16.834 23.0488C16.9904 23.0168 17.1506 23.0236 17.3048 23.0686C17.459 23.1136 17.6039 23.1959 17.7307 23.3105L20.9622 25.9045C21.1517 26.0531 21.3012 26.2649 21.3923 26.5138C21.4835 26.7628 21.5124 27.0382 21.4756 27.3066C21.4469 27.5686 21.3573 27.8155 21.2169 28.019C21.0765 28.2224 20.8912 28.374 20.6823 28.4563L17.4507 29.7463C17.3254 29.811 17.1904 29.8444 17.054 29.8444ZM32.1503 29.8444C32.0233 29.8497 31.8966 29.8259 31.7769 29.7743L28.5454 28.4423C28.3364 28.36 28.1511 28.2084 28.0107 28.0049C27.8704 27.8015 27.7807 27.5546 27.7521 27.2926C27.7152 27.0242 27.7442 26.7488 27.8353 26.4998C27.9265 26.2508 28.0759 26.0391 28.2654 25.8904L31.497 23.2965C31.6244 23.179 31.7708 23.0945 31.9267 23.0481C32.0827 23.0017 32.2449 22.9946 32.4033 23.0271C32.5616 23.0596 32.7127 23.1311 32.847 23.237C32.9813 23.343 33.096 23.4811 33.1838 23.6428C33.2716 23.8045 33.3307 23.9863 33.3573 24.1767C33.384 24.3671 33.3776 24.5621 33.3386 24.7494C33.2996 24.9367 33.2289 25.1123 33.1308 25.2652C33.0327 25.4182 32.9094 25.5451 32.7686 25.6381L31.602 26.6616L32.5703 27.0402C32.8797 27.1071 33.1543 27.319 33.3337 27.6293C33.5131 27.9396 33.5826 28.3228 33.5269 28.6947C33.4712 29.0665 33.2949 29.3966 33.0367 29.6122C32.7785 29.8278 32.4597 29.9113 32.1503 29.8444ZM38.8817 24.6005C38.6293 24.6005 38.3837 24.5021 38.1818 24.3201C37.9342 24.097 37.7706 23.7648 37.7268 23.3967C37.6831 23.0285 37.7628 22.6546 37.9484 22.3571L40.8184 17.7582C41.2116 16.5411 41.2917 15.2102 41.0483 13.9377C40.8049 12.6653 40.2493 11.51 39.4534 10.6214C38.1847 9.21599 36.5118 8.45699 34.7869 8.50422C34.5535 8.98094 34.3085 9.44831 34.0519 9.90634C33.8833 10.2187 33.6183 10.4378 33.3153 10.5153C33.0122 10.5929 32.696 10.5226 32.4361 10.32C32.1762 10.1173 31.9939 9.79884 31.9294 9.43466C31.8648 9.07048 31.9233 8.6904 32.0919 8.37803C32.3486 7.90131 32.6053 7.41057 32.8269 6.97592C33.5152 5.29338 35.8718 5.44761 37.9368 6.37301C41.5067 7.9574 44.7149 12.0656 42.965 18.8378C42.9258 18.9884 42.8667 19.1304 42.79 19.2584L39.7684 24.0396C39.6645 24.2064 39.5311 24.3433 39.3777 24.4403C39.2243 24.5373 39.0549 24.592 38.8817 24.6005Z" fill="#B1B1B1"/>
<path d="M10.8103 24.1571C10.735 24.1701 10.6584 24.1701 10.5831 24.1571C8.56073 23.6645 6.15209 21.6273 6.03848 14.7036C6.02713 13.9128 6.04988 13.1218 6.10664 12.3336C6.36829 8.48495 6.95437 4.6761 7.85632 0.96276C7.92716 0.677238 8.07752 0.427721 8.28343 0.253979C8.48934 0.0802376 8.73894 -0.00773076 8.99247 0.00409466H25.7166C27.5989 -0.0557793 29.4538 0.542131 31.0452 1.7217C31.6928 2.06789 34.715 3.89202 34.999 7.6601C35.0101 7.84628 35.0101 8.03315 34.999 8.21932C34.999 8.57245 34.8793 8.91112 34.6662 9.16082C34.4532 9.41052 34.1642 9.5508 33.8628 9.5508C33.5615 9.5508 33.2725 9.41052 33.0595 9.16082C32.8464 8.91112 32.7267 8.57245 32.7267 8.21932C32.7324 8.16182 32.7324 8.10373 32.7267 8.04623C32.5449 5.38327 30.0681 4.145 30.0454 4.13168L29.8409 3.99853C28.6041 3.07647 27.159 2.61248 25.6939 2.66705H9.78778C9.0582 5.8941 8.57907 9.19184 8.35623 12.52C8.3169 13.2158 8.30932 13.9136 8.3335 14.6104C8.3335 18.7513 9.28787 21.0681 11.0375 21.5075C11.3389 21.5446 11.6153 21.7204 11.806 21.9963C11.9967 22.2723 12.086 22.6256 12.0544 22.9788C12.0228 23.3319 11.8727 23.6558 11.6373 23.8793C11.4018 24.1028 11.1003 24.2075 10.799 24.1705L10.8103 24.1571Z" fill="#B1B1B1"/>
<path d="M11.4631 31.2889H10.3985C9.24138 31.2889 8.13167 30.7644 7.31349 29.8309C6.4953 28.8974 6.03564 27.6313 6.03564 26.3111C6.03564 24.9909 6.4953 23.7248 7.31349 22.7913C8.13167 21.8578 9.24138 21.3333 10.3985 21.3333H11.4631C11.7701 21.3333 12.0644 21.4724 12.2814 21.7201C12.4985 21.9677 12.6204 22.3035 12.6204 22.6537V29.9685C12.6204 30.3187 12.4985 30.6545 12.2814 30.9022C12.0644 31.1498 11.7701 31.2889 11.4631 31.2889ZM10.3059 23.9741C9.76264 23.9741 9.24164 24.2203 8.8575 24.6586C8.47337 25.0968 8.25756 25.6913 8.25756 26.3111C8.25756 26.9309 8.47337 27.5254 8.8575 27.9636C9.24164 28.4019 9.76264 28.6482 10.3059 28.6482V23.9741ZM40.3133 31.2889H39.2371C38.9302 31.2889 38.6358 31.1498 38.4188 30.9022C38.2018 30.6545 38.0798 30.3187 38.0798 29.9685V22.6537C38.0798 22.3035 38.2018 21.9677 38.4188 21.7201C38.6358 21.4724 38.9302 21.3333 39.2371 21.3333H40.3018C41.4589 21.3333 42.5686 21.8578 43.3867 22.7913C44.2049 23.7248 44.6646 24.9909 44.6646 26.3111C44.6646 27.6313 44.2049 28.8974 43.3867 29.8309C42.5686 30.7644 41.4589 31.2889 40.3018 31.2889H40.3133ZM40.3943 23.9741V28.6482C40.9376 28.6482 41.4586 28.4019 41.8427 27.9636C42.2269 27.5254 42.4427 26.9309 42.4427 26.3111C42.4427 25.6913 42.2269 25.0968 41.8427 24.6586C41.4586 24.2203 40.9376 23.9741 40.3943 23.9741Z" fill="#B1B1B1"/>
<path d="M26.65 44.086C26.4976 44.0972 26.3447 44.0743 26.2001 44.0185C26.0555 43.9627 25.9219 43.8752 25.8072 43.7608C25.5753 43.53 25.4338 43.2041 25.4138 42.8548C25.3938 42.5056 25.4969 42.1617 25.7004 41.8987C25.904 41.6357 26.1913 41.4752 26.4991 41.4525C27.5904 41.2768 28.6586 40.9495 29.6795 40.4781C32.0033 39.3739 33.9871 37.5145 35.3813 35.1339C36.7755 32.7534 37.5176 29.9582 37.5144 27.1002V21.1222H11.9784V27.1002C11.9748 29.9634 12.7193 32.7636 14.118 35.1471C15.5166 37.5305 17.5066 39.3903 19.8365 40.4913C20.0223 40.5703 20.2544 40.6757 20.4866 40.7547C20.779 40.8664 21.0203 41.1054 21.1575 41.419C21.2946 41.7326 21.3163 42.0951 21.2178 42.4269C21.1193 42.7587 20.9086 43.0324 20.6322 43.188C20.3557 43.3436 20.0361 43.3682 19.7437 43.2564L18.9428 42.9273C16.1929 41.6275 13.8437 39.4334 12.1912 36.6216C10.5388 33.8097 9.65698 30.5059 9.65698 27.1265V19.8055C9.65698 19.4563 9.77927 19.1213 9.99695 18.8744C10.2146 18.6275 10.5099 18.4888 10.8177 18.4888H38.6751C38.983 18.4888 39.2782 18.6275 39.4959 18.8744C39.7136 19.1213 39.8358 19.4563 39.8358 19.8055V27.1002C39.8358 30.4796 38.954 33.7834 37.3016 36.5952C35.6491 39.4071 33.2999 41.6011 30.55 42.9009C29.3429 43.4733 28.0745 43.8629 26.7777 44.0596L26.65 44.086Z" fill="#B1B1B1"/>
<path d="M48.3324 64.0003H1.16048C0.852638 64.0003 0.557402 63.8598 0.339724 63.6097C0.122045 63.3596 -0.000244141 63.0204 -0.000244141 62.6667V54.0381C0.00252488 52.0755 0.675186 50.1924 1.87322 48.7935C3.07126 47.3945 4.69908 46.5913 6.40696 46.5564L18.1071 44.1025H19.6741C19.9819 44.1025 20.2771 44.243 20.4948 44.4931C20.7125 44.7432 20.8348 45.0824 20.8348 45.4361C20.8348 45.7898 20.7125 46.1291 20.4948 46.3792C20.2771 46.6293 19.9819 46.7698 19.6741 46.7698H18.4205L6.73196 49.197H6.52303C5.41065 49.197 4.34365 49.7038 3.55599 50.6063C2.76833 51.5088 2.32428 52.7333 2.32121 54.0114V61.333H47.1716V54.0381C47.1686 52.76 46.7245 51.5354 45.9369 50.6329C45.1492 49.7305 44.0822 49.2236 42.9698 49.2236H42.7609L30.9795 46.7564C30.6717 46.7564 30.3764 46.6159 30.1588 46.3658C29.9411 46.1157 29.8188 45.7765 29.8188 45.4228C29.8188 45.0691 29.9411 44.7299 30.1588 44.4798C30.3764 44.2297 30.6717 44.0892 30.9795 44.0892H31.3858L43.0859 46.5564C44.7938 46.5913 46.4216 47.3945 47.6196 48.7935C48.8177 50.1924 49.4903 52.0755 49.4931 54.0381V62.6667C49.4931 63.0204 49.3708 63.3596 49.1531 63.6097C48.9354 63.8598 48.6402 64.0003 48.3324 64.0003Z" fill="#B1B1B1"/>
<path d="M10.7971 64C10.4947 64 10.2047 63.8562 9.9909 63.6001C9.7771 63.3441 9.65698 62.9968 9.65698 62.6347V56.3268C9.65698 55.9647 9.7771 55.6174 9.9909 55.3614C10.2047 55.1053 10.4947 54.9615 10.7971 54.9615C11.0994 54.9615 11.3894 55.1053 11.6032 55.3614C11.817 55.6174 11.9371 55.9647 11.9371 56.3268V62.6347C11.9371 62.9968 11.817 63.3441 11.6032 63.6001C11.3894 63.8562 11.0994 64 10.7971 64ZM24.478 39.424C21.2858 39.424 18.7776 37.3214 18.7776 34.6453C18.7776 31.9693 21.2858 29.8667 24.478 29.8667C27.6702 29.8667 30.1784 31.9693 30.1784 34.6453C30.1784 37.3214 27.6702 39.424 24.478 39.424ZM24.478 32.5973C22.5171 32.5973 21.0578 33.6759 21.0578 34.6453C21.0578 35.6147 22.5171 36.6933 24.478 36.6933C26.439 36.6933 27.8983 35.6147 27.8983 34.6453C27.8983 33.6759 26.439 32.5973 24.478 32.5973ZM29.0383 57.1733H28.8217L19.7011 55.0298C19.4376 54.9688 19.2005 54.7984 19.0316 54.5486C18.8627 54.2989 18.7727 53.9858 18.7776 53.6644V40.7893C18.7773 40.5888 18.814 40.3906 18.8849 40.2089C18.9559 40.0272 19.0594 39.8664 19.188 39.738C19.3182 39.6093 19.4706 39.5168 19.6343 39.4673C19.7979 39.4177 19.9687 39.4122 20.1343 39.4513L29.255 41.5949C29.5184 41.6559 29.7555 41.8263 29.9244 42.076C30.0934 42.3258 30.1833 42.6389 30.1784 42.9602V55.808C30.1787 56.0086 30.1421 56.2068 30.0711 56.3885C30.0002 56.5702 29.8967 56.7309 29.768 56.8593C29.5629 57.0629 29.3047 57.174 29.0383 57.1733ZM21.0578 52.5449L27.8983 54.1423V44.0525L21.0578 42.455V52.5449Z" fill="#B1B1B1"/>
<path d="M38.6376 60.0001C38.4506 60.0006 38.2662 59.9514 38.0993 59.8564C37.9325 59.7614 37.788 59.6233 37.6777 59.4535L28.1971 44.7888C28.0117 44.5024 27.9349 44.1448 27.9838 43.7948C28.0327 43.4448 28.2032 43.131 28.4578 42.9223C28.7124 42.7137 29.0302 42.6274 29.3414 42.6824C29.6525 42.7374 29.9315 42.9292 30.1169 43.2156L37.9977 55.4007C38.1885 55.2503 38.4165 55.1711 38.6495 55.1741C38.9638 55.1741 39.2652 55.3145 39.4874 55.5645C39.7097 55.8146 39.8345 56.1537 39.8345 56.5072V58.6669C39.8473 58.9593 39.7741 59.2483 39.6263 59.4892C39.4785 59.7302 39.2643 59.9097 39.0168 60.0001C38.8911 60.0205 38.7634 60.0205 38.6376 60.0001ZM31.5272 63.9996C31.2945 63.9994 31.0671 63.9221 30.8732 63.7775C30.6794 63.6329 30.5276 63.4273 30.4369 63.1864L27.8771 56.5206C27.8092 56.3582 27.7712 56.1821 27.7652 56.0028C27.7593 55.8235 27.7856 55.6447 27.8425 55.4771C27.8994 55.3095 27.9859 55.1566 28.0966 55.0275C28.2073 54.8983 28.3401 54.7957 28.487 54.7257C28.6338 54.6556 28.7917 54.6197 28.9512 54.6199C29.1107 54.6202 29.2685 54.6567 29.4151 54.7272C29.5618 54.7977 29.6943 54.9007 29.8047 55.0302C29.9151 55.1597 30.0011 55.3129 30.0577 55.4807L32.6174 62.1465C32.7398 62.4718 32.7423 62.8384 32.6246 63.1659C32.5068 63.4933 32.2783 63.7548 31.9893 63.8929C31.8432 63.963 31.686 63.9992 31.5272 63.9996Z" fill="#B1B1B1"/>
<path d="M4.68213 42.2003C4.44686 42.2002 4.21733 42.1147 4.02477 41.9554C3.83222 41.7961 3.686 41.5708 3.60601 41.3101C3.50045 40.9807 3.50842 40.6157 3.62821 40.2932C3.748 39.9706 3.97011 39.716 4.2471 39.5837L7.16636 38.3294C7.30876 38.2633 7.46098 38.2315 7.614 38.2359C7.76701 38.2403 7.91773 38.2808 8.05722 38.355C8.19672 38.4292 8.32217 38.5357 8.42615 38.668C8.53013 38.8003 8.61053 38.9559 8.66259 39.1255C8.71465 39.295 8.73732 39.4752 8.72926 39.6553C8.72119 39.8354 8.68256 40.0117 8.61564 40.1739C8.54872 40.3361 8.45488 40.4808 8.33966 40.5995C8.22443 40.7182 8.09018 40.8085 7.94482 40.865L5.02557 42.1059C4.91709 42.1624 4.80061 42.1944 4.68213 42.2003ZM10.5206 39.6916C10.2515 39.6913 9.99111 39.5792 9.78515 39.3751C9.57918 39.171 9.44082 38.888 9.39436 38.5757C9.3479 38.2634 9.39632 37.9418 9.53111 37.6673C9.66589 37.3929 9.87843 37.1832 10.1314 37.075L15.9699 34.5798C16.1135 34.5196 16.2657 34.4933 16.4179 34.5024C16.5701 34.5115 16.7193 34.5558 16.857 34.6328C16.9947 34.7098 17.1181 34.818 17.2203 34.9513C17.3224 35.0845 17.4013 35.2401 17.4524 35.4093C17.5036 35.5784 17.5259 35.7578 17.5182 35.9371C17.5104 36.1164 17.4728 36.2922 17.4074 36.4544C17.3421 36.6166 17.2502 36.762 17.1371 36.8824C17.0241 37.0028 16.892 37.0957 16.7484 37.1559L10.9099 39.6646C10.7824 39.6998 10.6507 39.7089 10.5206 39.6916ZM8.91791 50.6436C8.74973 50.6439 8.58355 50.6006 8.43119 50.5167C8.27884 50.4327 8.14405 50.3103 8.03641 50.158C7.94001 50.0218 7.86739 49.8644 7.82269 49.695C7.77799 49.5256 7.7621 49.3474 7.77592 49.1708C7.78975 48.9941 7.83302 48.8224 7.90325 48.6655C7.97349 48.5086 8.06931 48.3695 8.18523 48.2563L11.8601 44.6955C12.0959 44.4941 12.388 44.4061 12.677 44.4496C12.9659 44.493 13.2299 44.6646 13.4152 44.9294C13.6006 45.1941 13.6933 45.5322 13.6744 45.8746C13.6556 46.2171 13.5267 46.5382 13.314 46.7726L9.63914 50.3469C9.43466 50.5402 9.18007 50.6449 8.91791 50.6436ZM15.7638 43.8998C15.5957 43.9001 15.4295 43.8568 15.2771 43.7728C15.1248 43.6889 14.99 43.5665 14.8823 43.4142C14.786 43.2779 14.7133 43.1206 14.6686 42.9512C14.6239 42.7817 14.608 42.6036 14.6219 42.427C14.6357 42.2503 14.679 42.0786 14.7492 41.9217C14.8194 41.7647 14.9153 41.6257 15.0312 41.5125L17.7673 38.8149C17.8814 38.6891 18.0163 38.5922 18.1635 38.5301C18.3107 38.4681 18.4671 38.4422 18.6231 38.4541C18.7792 38.466 18.9315 38.5154 19.0706 38.5993C19.2098 38.6832 19.3329 38.7998 19.4324 38.9419C19.5319 39.084 19.6056 39.2486 19.649 39.4256C19.6924 39.6025 19.7046 39.7881 19.6848 39.9708C19.665 40.1535 19.6136 40.3295 19.5339 40.488C19.4542 40.6464 19.3477 40.7839 19.2212 40.892L16.4851 43.5896C16.2852 43.7939 16.0285 43.9044 15.7638 43.8998ZM45.0251 42.2003C44.8911 42.2015 44.7585 42.1694 44.6358 42.1059L41.7166 40.865C41.4393 40.7363 41.2156 40.4853 41.0929 40.1653C40.9703 39.8453 40.9584 39.4816 41.0597 39.1514C41.1611 38.8212 41.3677 38.5507 41.6358 38.3971C41.9038 38.2436 42.2121 38.2193 42.4951 38.3294L45.4601 39.5837C45.7454 39.7055 45.9781 39.9557 46.1069 40.2794C46.2357 40.6032 46.2501 40.9739 46.147 41.3101C46.0645 41.5797 45.9113 41.8113 45.7096 41.9713C45.5078 42.1314 45.2681 42.2116 45.0251 42.2003ZM39.1866 39.6916C39.0538 39.6914 38.9221 39.6641 38.7973 39.6107L32.9588 37.1559C32.8036 37.1097 32.6584 37.0256 32.5325 36.9091C32.4066 36.7927 32.3028 36.6464 32.2279 36.4797C32.153 36.3131 32.1085 36.1297 32.0975 35.9416C32.0864 35.7535 32.109 35.5647 32.1637 35.3874C32.2184 35.2102 32.304 35.0484 32.4151 34.9126C32.5261 34.7768 32.6601 34.6699 32.8084 34.5989C32.9567 34.5279 33.116 34.4943 33.276 34.5003C33.436 34.5063 33.5931 34.5518 33.7373 34.6338L39.5758 37.129C39.8288 37.2371 40.0413 37.4469 40.1761 37.7213C40.3109 37.9957 40.3593 38.3173 40.3129 38.6296C40.2664 38.9419 40.128 39.225 39.9221 39.4291C39.7161 39.6331 39.4557 39.7452 39.1866 39.7456V39.6916ZM40.7893 50.6436C40.5271 50.6449 40.2726 50.5402 40.0681 50.3469L36.3932 46.7322C36.1674 46.494 36.031 46.1601 36.0138 45.8036C35.9966 45.4471 36.1002 45.0971 36.3017 44.8304C36.4955 44.5586 36.7724 44.3877 37.0725 44.3549C37.3725 44.322 37.6714 44.4299 37.9044 44.6551L41.5792 48.2158C41.6951 48.329 41.791 48.4681 41.8612 48.625C41.9314 48.782 41.9747 48.9537 41.9885 49.1303C42.0024 49.307 41.9865 49.4851 41.9418 49.6545C41.8971 49.8239 41.8244 49.9813 41.728 50.1176C41.6179 50.2863 41.4754 50.4219 41.3123 50.5134C41.1491 50.6048 40.9699 50.6494 40.7893 50.6436ZM33.9434 43.8998C33.6788 43.9044 33.422 43.7939 33.2221 43.5896L30.486 40.892C30.3595 40.7839 30.253 40.6464 30.1733 40.488C30.0936 40.3295 30.0422 40.1535 30.0224 39.9708C30.0026 39.7881 30.0148 39.6025 30.0582 39.4256C30.1016 39.2486 30.1753 39.084 30.2748 38.9419C30.3743 38.7998 30.4974 38.6832 30.6366 38.5993C30.7758 38.5154 30.9281 38.466 31.0841 38.4541C31.2401 38.4422 31.3965 38.4681 31.5437 38.5301C31.6909 38.5922 31.8258 38.6891 31.94 38.8149L34.676 41.5125C34.792 41.6257 34.8878 41.7647 34.958 41.9217C35.0283 42.0786 35.0715 42.2503 35.0854 42.427C35.0992 42.6036 35.0833 42.7817 35.0386 42.9512C34.9939 43.1206 34.9213 43.2779 34.8249 43.4142C34.7172 43.5665 34.5824 43.6889 34.4301 43.7728C34.2777 43.8568 34.1115 43.9001 33.9434 43.8998Z" fill="#B1B1B1"/>
</svg>
