<svg width="60" height="65" viewBox="0 0 60 65" fill="none" xmlns="http://www.w3.org/2000/svg">
<path d="M9.92212 64.72C23.0268 64.72 36.1315 64.72 49.1426 64.72C49.7042 64.72 50.0786 64.3063 50.0786 63.6858V30.5888L52.0443 32.554C53.542 34.0019 55.7885 34.0019 57.1926 32.554C58.8775 30.8991 58.8775 28.0031 57.1926 26.2448L32.1065 1.00842C30.7024 -0.336141 28.5495 -0.336141 27.1454 1.00842L16.9425 11.2478V6.07639H18.5338C19.0954 6.07639 19.4698 5.66268 19.4698 5.04211C19.4698 4.42155 19.0954 4.00783 18.5338 4.00783C14.0407 4.00783 11.0454 4.00783 6.55234 4.00783C5.99071 4.00783 5.61629 4.42155 5.61629 5.04211C5.61629 5.66268 5.99071 6.07639 6.55234 6.07639H8.14363V20.0392L1.9657 26.2448C0.280815 27.8997 0.280815 30.8991 1.9657 32.554C3.36978 34.0019 5.7099 34.0019 7.11397 32.554L9.07968 30.5888V50.1367H6.55234V48.275C6.55234 47.6544 6.17792 47.2407 5.61629 47.2407C5.05466 47.2407 4.68025 47.6544 4.68025 48.275V50.1367H1.8721V48.275C1.8721 47.6544 1.49768 47.2407 0.936049 47.2407C0.37442 47.2407 0 47.6544 0 48.275V59.3418C0 59.9624 0.37442 60.3761 0.936049 60.3761C1.49768 60.3761 1.8721 59.9624 1.8721 59.3418V57.4801H4.68025V59.3418C4.68025 59.9624 5.05466 60.3761 5.61629 60.3761C6.17792 60.3761 6.55234 59.9624 6.55234 59.3418V57.4801H8.98607V63.5823C8.98607 64.2029 9.4541 64.72 9.92212 64.72ZM30.7024 62.6515V40.7248H42.871V62.6515H30.7024ZM9.92212 6.07639H14.9768V13.1095L9.92212 18.1775V6.07639ZM5.8035 31.0025C5.05466 31.7265 3.93141 31.7265 3.18257 31.0025C2.34012 30.1751 2.34012 28.6237 3.18257 27.7963C5.8035 25.2106 -6.17793 37.1048 28.3623 2.55984C29.0175 1.83585 30.1408 1.83585 30.796 2.55984L55.9757 27.7963C56.8182 28.6237 56.8182 30.1751 55.9757 31.0025C55.2269 31.7265 54.1036 31.7265 53.3548 31.0025L30.2344 7.83467C29.86 7.52438 29.2983 7.52438 29.0175 7.83467C12.8239 23.9694 16.3809 20.3495 5.8035 31.0025ZM29.5791 10.0067L48.3001 28.7271V62.6515H44.7431V40.7248H45.3048C45.8664 40.7248 46.2408 40.3111 46.2408 39.6905C46.2408 39.0699 45.8664 38.6562 45.3048 38.6562C40.2501 38.6562 33.3233 38.6562 28.2687 38.6562C27.7071 38.6562 27.3326 39.0699 27.3326 39.6905C27.3326 40.3111 27.7071 40.7248 28.2687 40.7248H28.8303V62.6515H10.8582V28.7271L29.5791 10.0067ZM1.8721 55.4115V52.1018H4.68025V55.4115H1.8721ZM6.55234 55.4115V52.1018H8.98607V55.4115H6.55234Z" fill="#B1B1B1"/>
<path d="M29.1298 33.6321C33.036 33.6321 36.2754 30.2003 36.2754 26.0619C36.2754 21.9235 33.036 18.4917 29.1298 18.4917C25.2235 18.4917 21.9842 21.9235 21.9842 26.0619C21.9842 30.2003 25.2235 33.6321 29.1298 33.6321ZM23.9849 27.0712H28.177V31.5124C26.081 31.1087 24.366 29.2918 23.9849 27.0712ZM30.0825 31.5124V27.0712H34.2746C33.8935 29.2918 32.1786 31.1087 30.0825 31.5124ZM34.2746 25.0525H30.0825V20.6114C32.1786 21.0151 33.8935 22.8319 34.2746 25.0525ZM28.177 20.6114V25.0525H23.9849C24.366 22.8319 26.081 21.0151 28.177 20.6114ZM13.1236 57.0492H25.3188C25.8904 57.0492 26.2715 56.6454 26.2715 56.0398V44.6341C26.2715 44.0285 25.8904 43.6247 25.3188 43.6247H13.1236C12.552 43.6247 12.1709 44.0285 12.1709 44.6341V55.9389C12.1709 56.5445 12.6473 57.0492 13.1236 57.0492ZM14.0764 51.3968H18.2685V55.0305H14.0764V51.3968ZM20.174 55.0305V51.3968H24.366V55.0305H20.174ZM24.366 49.3781H20.174V45.7444H24.366V49.3781ZM18.2685 45.6434V49.2771H14.0764V45.6434H18.2685ZM32.4644 49.1762C31.8927 49.1762 31.5116 49.5799 31.5116 50.1855V52.2043C31.5116 52.8099 31.8927 53.2136 32.4644 53.2136C33.036 53.2136 33.4171 52.8099 33.4171 52.2043V50.1855C33.4171 49.6809 32.9408 49.1762 32.4644 49.1762ZM55.7114 64.7203C56.283 64.7203 56.6641 64.3166 56.6641 63.7109V55.8379C58.5696 55.3333 59.9988 53.6174 59.9988 51.3968C59.9988 49.479 58.4744 43.7256 55.7114 43.7256C52.9484 43.7256 51.424 49.479 51.424 51.3968C51.424 53.5164 52.8532 55.3333 54.7586 55.8379V63.7109C54.7586 64.3166 55.1397 64.7203 55.7114 64.7203ZM53.3295 51.3968C53.3295 49.2771 54.8539 45.7444 55.7114 45.7444C56.5689 45.7444 58.0933 49.3781 58.0933 51.3968C58.0933 52.4061 57.5216 53.3146 56.6641 53.7183V52.8099C56.6641 52.2043 56.283 51.8005 55.7114 51.8005C55.1397 51.8005 54.7586 52.2043 54.7586 52.8099V53.7183C53.9012 53.3146 53.3295 52.4061 53.3295 51.3968Z" fill="#B1B1B1"/>
</svg>
